<svg aria-hidden="true" style="position: absolute; width: 0; height: 0; overflow: hidden;" version="1.1" xmlns="http://www.w3.org/2000/svg" xmlns:xlink="http://www.w3.org/1999/xlink">
<defs>
<symbol id="icon-seat-belt" viewBox="0 0 32 32">
<path d="M11.805 5.529l-5.333-5.333c-0.26-0.26-0.683-0.26-0.943 0s-0.26 0.683 0 0.943l4.863 4.861-4.391 4.391-4.863-4.861c-0.26-0.26-0.683-0.26-0.943 0s-0.26 0.683 0 0.943l5.333 5.333c0.131 0.129 0.301 0.195 0.472 0.195s0.341-0.065 0.471-0.195l5.333-5.333c0.26-0.26 0.26-0.683 0-0.943zM19.139 14.194l-4-4c-0.26-0.26-0.683-0.26-0.943 0s-0.26 0.683 0 0.943l-3.057 3.057c-0.26-0.26-0.683-0.26-0.943 0s-0.26 0.683 0 0.943l4 4c0.129 0.131 0.3 0.196 0.471 0.196s0.341-0.065 0.472-0.195l4-4c0.26-0.261 0.26-0.683 0-0.944zM16.195 7.251l-2.115-2.115c-0.755-0.755-2.073-0.755-2.828 0l-6.077 6.079c-0.379 0.379-0.588 0.881-0.587 1.416 0 0.532 0.208 1.033 0.585 1.411 0.632 0.631 1.451 1.472 2.076 2.116 0.38 0.392 0.888 0.608 1.433 0.608 0.533 0 1.037-0.208 1.416-0.587l6.097-6.097c0.377-0.38 0.585-0.883 0.585-1.416s-0.208-1.036-0.587-1.415zM13.139 9.138l-4 4c-0.131 0.129-0.301 0.195-0.472 0.195s-0.341-0.065-0.472-0.195c-0.26-0.26-0.26-0.683 0-0.943l4-4c0.26-0.26 0.683-0.26 0.943 0s0.261 0.681 0.001 0.943zM31.805 25.529l-4-4c-0.26-0.26-0.683-0.26-0.943 0l-5.333 5.333c-0.26 0.26-0.26 0.683 0 0.943l4 4c0.131 0.129 0.301 0.195 0.472 0.195s0.341-0.065 0.471-0.196c0.26-0.26 0.26-0.683 0-0.943l-3.528-3.528 4.391-4.391 3.528 3.529c0.26 0.26 0.683 0.26 0.943 0s0.26-0.683-0-0.943zM27.954 21.753c-0.039-0.099-0.1-0.184-0.175-0.251-0.228-0.295-1.297-1.944-3.665-5.765-0.648-1.045-2.236-1.225-3.109-0.352l-5.633 5.633c-0.431 0.431-0.64 1.025-0.573 1.632s0.4 1.141 0.915 1.471l5.931 3.775c0.109 0.071 0.233 0.104 0.357 0.104 0.172 0 0.343-0.067 0.472-0.195l5.333-5.333c0.188-0.189 0.247-0.471 0.148-0.719zM23.806 19.805l-4 4c-0.131 0.129-0.301 0.195-0.472 0.195s-0.341-0.065-0.472-0.195c-0.26-0.26-0.26-0.683 0-0.943l4-4c0.26-0.26 0.683-0.26 0.943 0s0.261 0.681 0.001 0.943zM19.334 6.666c-0.368 0-0.667 0.299-0.667 0.667v1.333c0 0.368 0.299 0.667 0.667 0.667s0.667-0.299 0.667-0.667v-1.333c-0-0.368-0.299-0.667-0.667-0.667zM24.668 11.999h-1.333c-0.368 0-0.667 0.299-0.667 0.667s0.299 0.667 0.667 0.667h1.333c0.368 0 0.667-0.299 0.667-0.667s-0.299-0.667-0.667-0.667zM23.805 8.195c-0.26-0.26-0.683-0.26-0.943 0l-1.333 1.333c-0.26 0.26-0.26 0.683 0 0.943 0.131 0.129 0.301 0.195 0.472 0.195s0.341-0.065 0.471-0.195l1.333-1.333c0.26-0.26 0.26-0.683 0-0.943zM12.667 22.666c-0.368 0-0.667 0.299-0.667 0.667v1.333c0 0.368 0.299 0.667 0.667 0.667s0.667-0.299 0.667-0.667v-1.333c0-0.368-0.299-0.667-0.667-0.667zM8.667 18.666h-1.333c-0.368 0-0.667 0.299-0.667 0.667s0.299 0.667 0.667 0.667h1.333c0.368 0 0.667-0.299 0.667-0.667s-0.299-0.667-0.667-0.667zM10.471 21.529c-0.26-0.26-0.683-0.26-0.943 0l-1.333 1.333c-0.26 0.26-0.26 0.683 0 0.943 0.131 0.129 0.301 0.195 0.472 0.195s0.341-0.065 0.471-0.195l1.333-1.333c0.26-0.26 0.26-0.683 0-0.943z"></path>
</symbol>
<symbol id="icon-research" viewBox="0 0 32 32">
<path d="M17.984 23.062h-7.181c-0.348 0-0.629 0.282-0.629 0.629s0.282 0.629 0.629 0.629h7.181c0.348 0 0.629-0.282 0.629-0.629s-0.282-0.629-0.629-0.629zM7.445 26.918c0 0.348 0.282 0.629 0.629 0.629h3.513c0.348 0 0.629-0.282 0.629-0.629s-0.282-0.629-0.629-0.629h-3.513c-0.348 0-0.629 0.282-0.629 0.629zM16.57 26.918c0 0.348 0.282 0.629 0.629 0.629h3.513c0.348 0 0.629-0.282 0.629-0.629s-0.282-0.629-0.629-0.629h-3.513c-0.348 0-0.629 0.282-0.629 0.629zM14.388 26.289c-0.348 0-0.629 0.282-0.629 0.629s0.282 0.629 0.629 0.629h0.012c0.348 0 0.629-0.282 0.629-0.629s-0.282-0.629-0.629-0.629zM1.613 10.408c0.348 0 0.629-0.282 0.629-0.629v-0.012c0-0.348-0.282-0.629-0.629-0.629s-0.629 0.282-0.629 0.629v0.012c0 0.348 0.282 0.629 0.629 0.629zM30.276 24.831l-2.828-2.828v-15.938c0-0.020-0.001-0.040-0.003-0.060-0.001-0.008-0.002-0.017-0.003-0.025-0.002-0.011-0.003-0.022-0.005-0.033-0.002-0.010-0.004-0.020-0.007-0.030s-0.004-0.018-0.007-0.027c-0.003-0.010-0.006-0.021-0.010-0.031-0.003-0.008-0.006-0.016-0.009-0.024-0.004-0.010-0.008-0.020-0.013-0.030-0.004-0.008-0.008-0.016-0.011-0.024-0.005-0.009-0.009-0.019-0.015-0.027s-0.010-0.016-0.015-0.024c-0.005-0.008-0.010-0.016-0.016-0.024s-0.012-0.017-0.019-0.025c-0.005-0.007-0.011-0.014-0.016-0.021-0.002-0.002-0.003-0.004-0.004-0.006l-4.686-5.435c-0.004-0.005-0.009-0.009-0.013-0.013-0.009-0.010-0.018-0.020-0.028-0.029-0.006-0.006-0.013-0.012-0.020-0.018-0.010-0.008-0.019-0.017-0.029-0.025-0.007-0.005-0.014-0.011-0.021-0.016-0.011-0.008-0.022-0.015-0.033-0.022-0.007-0.004-0.014-0.008-0.021-0.012-0.012-0.007-0.025-0.014-0.038-0.020-0.006-0.003-0.013-0.006-0.019-0.009-0.014-0.006-0.029-0.012-0.043-0.017-0.006-0.002-0.011-0.004-0.017-0.006-0.016-0.005-0.032-0.009-0.048-0.013-0.005-0.001-0.010-0.003-0.015-0.004-0.017-0.004-0.035-0.006-0.052-0.009-0.005-0.001-0.009-0.002-0.013-0.002-0.022-0.002-0.044-0.004-0.067-0.004h-18.335c-1.552 0-2.814 1.264-2.814 2.817v4.144c0 0.348 0.282 0.629 0.629 0.629s0.629-0.282 0.629-0.629v-4.144c0-0.859 0.698-1.558 1.556-1.558h17.705v4.057c0 0.76 0.619 1.379 1.38 1.379h3.305v14.050l-1.382-1.382c-0.003-0.004-0.006-0.008-0.010-0.011s-0.007-0.007-0.011-0.010l-2.967-2.967c0.607-1.159 0.951-2.477 0.951-3.874 0-4.619-3.757-8.376-8.375-8.376s-8.376 3.758-8.376 8.376c0 2.205 0.856 4.213 2.253 5.71 0.029 0.038 0.062 0.074 0.099 0.105 1.524 1.579 3.661 2.563 6.024 2.563 1.396 0 2.713-0.344 3.872-0.951l2.966 2.968c0.004 0.004 0.007 0.008 0.010 0.011s0.008 0.007 0.011 0.010l4.934 4.936v1.332c0 0.859-0.698 1.558-1.556 1.558h-20.835c-0.858 0-1.556-0.699-1.556-1.558v-16.611c0-0.348-0.282-0.629-0.629-0.629s-0.629 0.282-0.629 0.629v16.611c0 1.553 1.263 2.817 2.814 2.817h20.835c1.552 0 2.814-1.264 2.814-2.817v-0.261c0.345 0.177 0.695 0.255 1.033 0.255 0.669-0 1.292-0.305 1.738-0.751 0.885-0.886 1.206-2.447 0.057-3.596zM22.762 5.316v-2.992l2.683 3.112h-2.561c-0.066 0-0.122-0.055-0.122-0.12zM14.395 5.382c3.924 0 7.116 3.193 7.116 7.117 0 1.3-0.351 2.521-0.962 3.571-0.044 0.053-0.079 0.111-0.104 0.172-0.124 0.2-0.257 0.393-0.4 0.579-0.748-1.384-1.968-2.44-3.411-2.995 0.853-0.686 1.4-1.737 1.4-2.913 0-2.062-1.676-3.739-3.737-3.739s-3.739 1.678-3.739 3.739c0 1.176 0.546 2.226 1.398 2.911-0.496 0.19-0.97 0.441-1.412 0.752-0.791 0.556-1.441 1.27-1.914 2.095-0.851-1.173-1.353-2.614-1.353-4.171 0-3.924 3.193-7.117 7.118-7.117zM11.817 10.912c0-1.368 1.113-2.481 2.48-2.481s2.478 1.113 2.478 2.481c0 1.367-1.112 2.479-2.478 2.479s-2.48-1.112-2.48-2.479zM9.521 17.683c0.862-1.829 2.733-3.033 4.776-3.033 2.103 0 3.996 1.254 4.832 3.159-0.308 0.275-0.64 0.524-0.993 0.743-0.062 0.025-0.121 0.060-0.174 0.105-1.049 0.611-2.268 0.961-3.567 0.961-1.884 0-3.599-0.736-4.874-1.936zM20.256 18.478c0.043-0.033 0.081-0.072 0.114-0.114 0.274-0.28 0.53-0.579 0.763-0.895l2.328 2.328-1.772 1.772-2.328-2.329c0.316-0.233 0.615-0.489 0.894-0.763zM29.328 27.537c-0.404 0.405-1.067 0.606-1.716-0.042l-5.033-5.035 1.772-1.773 2.011 2.011c0.008 0.008 0.016 0.016 0.024 0.024l2.999 2.999c0.645 0.645 0.319 1.439-0.057 1.816z"></path>
</symbol>
<symbol id="icon-door-key" viewBox="0 0 32 32">
<path d="M31.653 10.092c0-1.362-0.268-2.683-0.792-3.931-0.509-1.202-1.236-2.281-2.162-3.207s-2.005-1.653-3.207-2.162c-1.244-0.528-2.568-0.792-3.93-0.792s-2.683 0.268-3.93 0.792c-1.202 0.509-2.281 1.236-3.207 2.162s-1.653 2.005-2.162 3.207c-0.528 1.244-0.792 2.568-0.792 3.931 0 1.703 0.429 3.372 1.244 4.857l-12.082 12.071c-0.279 0.279-0.367 0.704-0.195 1.106 0.034 0.084 0.092 0.161 0.157 0.226l2.706 2.706c0.065 0.065 0.142 0.119 0.226 0.157 0.402 0.172 0.827 0.088 1.106-0.195l1.672-1.672 2.407 2.407c0.065 0.065 0.142 0.119 0.226 0.157 0.402 0.172 0.827 0.088 1.106-0.195l2.668-2.668c0.065-0.065 0.119-0.142 0.157-0.226 0.172-0.402 0.088-0.827-0.195-1.106l-2.369-2.369 6.399-6.403c1.481 0.815 3.154 1.244 4.857 1.244 1.362 0 2.683-0.268 3.93-0.792 1.202-0.509 2.281-1.236 3.207-2.162s1.653-2.005 2.162-3.207c0.528-1.252 0.796-2.572 0.796-3.934zM25.097 13.632c-0.945 0.945-2.204 1.466-3.54 1.466s-2.595-0.521-3.54-1.466c-0.945-0.945-1.47-2.204-1.47-3.54 0-1.339 0.52-2.595 1.466-3.54s2.204-1.466 3.54-1.466c1.336 0 2.595 0.521 3.54 1.466s1.466 2.204 1.466 3.54c0.008 1.336-0.513 2.595-1.462 3.54z"></path>
</symbol>
<symbol id="icon-follow" viewBox="0 0 32 32">
<path d="M13.283 26.053c-0.403-0.403-1.057-0.403-1.46 0l-2.704 2.704c-0.403 0.403-0.403 1.057 0 1.459 0.4 0.402 1.055 0.405 1.46 0l2.704-2.704c0.403-0.403 0.403-1.057 0-1.459zM5.947 18.717c-0.403-0.403-1.056-0.403-1.459 0l-2.704 2.704c-0.403 0.403-0.403 1.057 0 1.46s1.055 0.404 1.459 0l2.704-2.704c0.403-0.403 0.403-1.057 0-1.46zM10.838 21.162c-0.403-0.403-1.057-0.403-1.46 0l-6.854 6.854c-0.403 0.403-0.403 1.057 0 1.46 0.403 0.402 1.055 0.403 1.46 0l6.854-6.854c0.403-0.403 0.403-1.057 0-1.46zM31.947 1.354l-9.782 29.935c-0.276 0.845-1.425 0.968-1.874 0.198l-6.578-11.313c-0.208-0.357-0.183-0.803 0.063-1.134l2.362-3.18-3.18 2.362c-0.332 0.246-0.777 0.271-1.134 0.063l-11.313-6.578c-0.767-0.446-0.649-1.596 0.198-1.874l29.935-9.782c0.8-0.261 1.564 0.498 1.302 1.302z"></path>
</symbol>
<symbol id="icon-follow_alt" viewBox="0 0 32 32">
<path d="M30.646 0.053l-29.935 9.782c-0.845 0.276-0.968 1.426-0.198 1.873l11.313 6.578c0.357 0.208 0.803 0.183 1.134-0.064l3.18-2.362-2.362 3.18c-0.246 0.331-0.271 0.778-0.064 1.134l6.578 11.313c0.448 0.77 1.598 0.646 1.874-0.198l9.782-29.935c0.262-0.804-0.502-1.563-1.302-1.302zM20.919 28.458l-5.078-8.733 6.123-8.245c0.305-0.411 0.263-0.983-0.099-1.345s-0.934-0.404-1.345-0.099l-8.245 6.123-8.733-5.078 25.812-8.434zM10.838 22.622l-6.854 6.854c-0.403 0.403-1.057 0.403-1.46 0s-0.403-1.057 0-1.46l6.854-6.854c0.403-0.403 1.057-0.403 1.46 0s0.403 1.057 0 1.46zM1.783 22.881c-0.403-0.403-0.403-1.057 0-1.46l2.704-2.705c0.403-0.403 1.057-0.403 1.46 0s0.403 1.057 0 1.46l-2.704 2.705c-0.403 0.403-1.057 0.403-1.46 0zM13.283 26.052c0.403 0.403 0.403 1.057 0 1.46l-2.705 2.704c-0.202 0.202-0.466 0.302-0.73 0.302-0.911 0-1.382-1.11-0.73-1.762l2.705-2.704c0.403-0.403 1.057-0.403 1.46 0z"></path>
</symbol>
</defs>
</svg>
