<svg aria-hidden="true" style="position: absolute; width: 0; height: 0; overflow: hidden;" version="1.1" xmlns="http://www.w3.org/2000/svg" xmlns:xlink="http://www.w3.org/1999/xlink">
<defs>
<symbol id="icon-location" viewBox="0 0 32 32">
<path d="M31.369 0.121c-0.322-0.161-0.702-0.161-1.024 0v0l-29.713 14.857c-0.564 0.283-0.793 0.969-0.511 1.533 0.161 0.321 0.463 0.548 0.817 0.613l11.793 2.145 2.145 11.793c0.088 0.483 0.475 0.857 0.961 0.927 0.054 0.008 0.108 0.012 0.162 0.011 0.433 0 0.829-0.244 1.023-0.632l14.857-29.713c0.283-0.564 0.054-1.251-0.51-1.534z"></path>
</symbol>
<symbol id="icon-location_alt" viewBox="0 0 32 32">
<path d="M31.369 0.121c-0.322-0.161-0.702-0.161-1.024 0v0l-29.713 14.857c-0.564 0.283-0.793 0.969-0.511 1.533 0.161 0.321 0.463 0.548 0.817 0.613l11.793 2.145 2.145 11.793c0.088 0.483 0.475 0.857 0.961 0.927 0.054 0.008 0.108 0.012 0.162 0.011 0.433 0 0.829-0.244 1.023-0.632l14.857-29.713c0.283-0.564 0.054-1.251-0.51-1.534zM16.51 27.279l-1.673-9.197c-0.086-0.464-0.45-0.828-0.914-0.914l-9.202-1.678 23.58-11.79-11.79 23.58z"></path>
</symbol>
<symbol id="icon-search-2" viewBox="0 0 32 32">
<path d="M11.211-0.091c-6.173 0-11.211 5.038-11.211 11.211s5.038 11.211 11.211 11.211c2.8 0 5.357-1.044 7.326-2.753l0.682 0.682v2.071l9.609 9.609 3.203-3.203-9.609-9.609h-2.071l-0.682-0.682c1.709-1.969 2.753-4.526 2.753-7.326 0-6.173-5.038-11.211-11.211-11.211zM11.211 3.112c4.442 0 8.008 3.566 8.008 8.008s-3.566 8.008-8.008 8.008c-4.442 0-8.008-3.566-8.008-8.008s3.566-8.008 8.008-8.008z"></path>
</symbol>
<symbol id="icon-direction-arrow-fit" viewBox="0 0 32 32">
<path d="M4.895 17.627l9.427 1.857 5.117 8.325 6.016-24.237zM2.304 1.923h8.649v-2.296h-10.945v10.326h2.296zM21.535-0.373v2.296h8.296v8.030h2.295v-10.326zM2.304 20.543h-2.296v11.21h10.945v-2.295h-8.649zM29.83 29.458h-8.296v2.295h10.591v-11.21h-2.295z"></path>
</symbol>
<symbol id="icon-check-square" viewBox="0 0 28 32">
<path d="M25.122 1.543h-22.108c-1.665 0-3.015 1.35-3.015 3.015v22.108c0 1.665 1.35 3.015 3.015 3.015h22.108c1.665 0 3.015-1.35 3.015-3.015v-22.108c0-1.665-1.35-3.015-3.015-3.015zM25.122 26.665h-22.108v-22.108h22.108v22.108zM22.87 11.483l-10.84 10.753c-0.295 0.293-0.773 0.291-1.066-0.004l-5.702-5.748c-0.293-0.295-0.291-0.773 0.004-1.066l1.427-1.415c0.295-0.293 0.773-0.291 1.066 0.004l3.755 3.786 8.878-8.806c0.295-0.293 0.773-0.291 1.066 0.004l1.415 1.427c0.293 0.296 0.291 0.773-0.004 1.066z"></path>
</symbol>
<symbol id="icon-file-alt" viewBox="0 0 24 32">
<path d="M18.088 15.109v1.759c0 0.415-0.339 0.754-0.754 0.754h-10.551c-0.415 0-0.754-0.339-0.754-0.754v-1.759c0-0.415 0.339-0.754 0.754-0.754h10.551c0.415 0 0.754 0.339 0.754 0.754zM17.334 19.631h-10.551c-0.415 0-0.754 0.339-0.754 0.754v1.759c0 0.415 0.339 0.754 0.754 0.754h10.551c0.415 0 0.754-0.339 0.754-0.754v-1.759c0-0.415-0.339-0.754-0.754-0.754zM24.118 7.817v20.858c0 1.664-1.35 3.015-3.015 3.015h-18.088c-1.664 0-3.015-1.35-3.015-3.015v-26.127c0-1.664 1.35-3.015 3.015-3.015h12.819c0.798 0 1.564 0.32 2.129 0.886l5.269 5.269c0.565 0.559 0.886 1.332 0.886 2.129zM16.078 2.793v4.78h4.78l-4.78-4.78zM21.103 28.675v-18.088h-6.532c-0.835 0-1.507-0.672-1.507-1.507v-6.532h-10.049v26.127h18.088z"></path>
</symbol>
<symbol id="icon-heart" viewBox="0 0 32 32">
<path d="M28.79 3.571c-3.63-3.052-9.239-2.594-12.712 0.942-3.473-3.536-9.082-4.001-12.712-0.942-4.723 3.976-4.032 10.457-0.666 13.893l11.016 11.223c0.628 0.641 1.47 0.999 2.362 0.999 0.898 0 1.733-0.352 2.362-0.992l11.016-11.223c3.36-3.435 4.064-9.917-0.666-13.899zM27.308 15.348l-11.016 11.223c-0.151 0.151-0.276 0.151-0.427 0l-11.016-11.223c-2.292-2.336-2.757-6.758 0.458-9.465 2.443-2.054 6.212-1.746 8.573 0.66l2.198 2.242 2.198-2.242c2.374-2.418 6.142-2.713 8.573-0.666 3.209 2.707 2.732 7.154 0.458 9.471z"></path>
</symbol>
<symbol id="icon-plus-square" viewBox="0 0 28 32">
<path d="M22.108 14.606v2.010c0 0.415-0.339 0.754-0.754 0.754h-5.527v5.527c0 0.415-0.339 0.754-0.754 0.754h-2.010c-0.415 0-0.754-0.339-0.754-0.754v-5.527h-5.527c-0.415 0-0.754-0.339-0.754-0.754v-2.010c0-0.415 0.339-0.754 0.754-0.754h5.527v-5.527c0-0.415 0.339-0.754 0.754-0.754h2.010c0.415 0 0.754 0.339 0.754 0.754v5.527h5.527c0.415 0 0.754 0.339 0.754 0.754zM28.137 4.557v22.108c0 1.664-1.35 3.015-3.015 3.015h-22.108c-1.664 0-3.015-1.35-3.015-3.015v-22.108c0-1.664 1.35-3.015 3.015-3.015h22.108c1.664 0 3.015 1.35 3.015 3.015zM25.122 26.288v-21.354c0-0.207-0.17-0.377-0.377-0.377h-21.354c-0.207 0-0.377 0.17-0.377 0.377v21.354c0 0.207 0.17 0.377 0.377 0.377h21.354c0.207 0 0.377-0.17 0.377-0.377z"></path>
</symbol>
<symbol id="icon-star" viewBox="0 0 36 32">
<path d="M33.168 10.304l-9.176-1.338-4.101-8.316c-0.735-1.482-2.864-1.501-3.605 0l-4.101 8.316-9.176 1.338c-1.645 0.239-2.305 2.267-1.112 3.429l6.639 6.469-1.57 9.138c-0.283 1.652 1.457 2.889 2.914 2.117l8.209-4.315 8.209 4.315c1.457 0.766 3.197-0.465 2.914-2.117l-1.57-9.138 6.639-6.469c1.193-1.162 0.534-3.191-1.112-3.429zM24.406 19.147l1.488 8.692-7.807-4.101-7.807 4.101 1.488-8.692-6.318-6.155 8.73-1.269 3.907-7.914 3.907 7.914 8.73 1.269-6.318 6.155z"></path>
</symbol>
<symbol id="icon-trash-alt" viewBox="0 0 28 32">
<path d="M12.059 11.341v13.566c0 0.416-0.338 0.754-0.754 0.754h-1.507c-0.416 0-0.754-0.338-0.754-0.754v-13.566c0-0.416 0.338-0.754 0.754-0.754h1.507c0.416 0 0.754 0.338 0.754 0.754zM18.339 10.587h-1.507c-0.416 0-0.754 0.338-0.754 0.754v13.566c0 0.416 0.338 0.754 0.754 0.754h1.507c0.416 0 0.754-0.338 0.754-0.754v-13.566c0-0.416-0.338-0.754-0.754-0.754zM26.63 4.557c0.832 0 1.507 0.675 1.507 1.507v0.754c0 0.416-0.338 0.754-0.754 0.754h-1.256v21.103c0 1.665-1.35 3.015-3.015 3.015h-18.088c-1.665 0-3.015-1.35-3.015-3.015v-21.103h-1.256c-0.416 0-0.754-0.338-0.754-0.754v-0.754c0-0.832 0.675-1.507 1.507-1.507h4.673l2.137-3.561c0.536-0.883 1.493-1.464 2.585-1.464 0 0 0 0 0 0h6.332c0 0 0 0 0 0 1.092 0 2.049 0.581 2.578 1.45l0.008 0.013 2.137 3.561h4.673zM9.697 4.557h8.744l-1.096-1.827c-0.067-0.11-0.187-0.183-0.323-0.183 0 0 0 0 0 0h-5.906c0 0 0 0 0 0-0.136 0-0.256 0.073-0.322 0.181l-0.001 0.002-1.096 1.827zM23.113 7.572h-18.088v20.726c0 0.208 0.169 0.377 0.377 0.377v0h17.334c0.208 0 0.377-0.169 0.377-0.377v0-20.726z"></path>
</symbol>
<symbol id="icon-angle-double-left" viewBox="0 0 28 32">
<path d="M14.050 14.544l8.542-8.542c0.59-0.59 1.545-0.59 2.129 0l1.419 1.419c0.59 0.59 0.59 1.545 0 2.129l-6.048 6.061 6.055 6.054c0.59 0.59 0.59 1.545 0 2.129l-1.419 1.426c-0.59 0.59-1.545 0.59-2.129 0l-8.542-8.542c-0.597-0.59-0.597-1.545-0.006-2.135zM1.991 16.679l8.542 8.542c0.59 0.59 1.545 0.59 2.129 0l1.419-1.419c0.59-0.59 0.59-1.545 0-2.129l-6.048-6.061 6.054-6.054c0.59-0.59 0.59-1.545 0-2.129l-1.419-1.426c-0.59-0.59-1.545-0.59-2.129 0l-8.542 8.542c-0.597 0.59-0.597 1.545-0.006 2.135z"></path>
</symbol>
<symbol id="icon-angle-down" viewBox="0 0 20 32">
<path d="M8.981 21.66l-8.542-8.542c-0.59-0.59-0.59-1.545 0-2.129l1.419-1.419c0.59-0.59 1.545-0.59 2.129 0l6.055 6.054 6.055-6.055c0.59-0.59 1.545-0.59 2.129 0l1.419 1.419c0.59 0.59 0.59 1.545 0 2.129l-8.542 8.542c-0.578 0.59-1.533 0.59-2.123 0z"></path>
</symbol>
<symbol id="icon-barcode" viewBox="0 0 32 32">
<path d="M0 27.67v-24.118h1.13v24.118h-1.13zM1.687 27.653v-24.1h0.574v24.1h-0.574zM3.392 27.653v-24.1h0.556v24.1h-0.556zM6.209 27.653v-24.1h0.556v24.1h-0.556zM8.47 27.653v-24.1h1.113v24.1h-1.113zM11.287 27.653v-24.1h0.556v24.1h-0.556zM12.418 27.653v-24.1h0.556v24.1h-0.556zM13.548 27.653v-24.1h0.556v24.1h-0.556zM15.791 27.653v-24.1h1.13v24.1h-1.13zM18.609 27.653v-24.1h1.13v24.1h-1.13zM20.87 27.653v-24.1h1.131v24.1h-1.131zM23.131 27.653v-24.1h1.131v24.1h-1.131zM24.817 27.653v-24.1h1.13v24.1h-1.13zM27.653 27.653v-24.1h1.687v24.1h-1.687zM29.896 27.653v-24.1h0.574v24.1h-0.574zM31.026 27.67v-24.118h1.13v24.118h-1.13z"></path>
</symbol>
<symbol id="icon-car-alt" viewBox="0 0 30 32">
<path d="M27.55 12.869l-1.958-4.894c-1.075-2.686-3.638-4.422-6.531-4.422h-7.976c-2.893 0-5.457 1.735-6.531 4.422l-1.958 4.894c-1.515 0.576-2.596 2.030-2.596 3.748v3.015c0 1.012 0.387 1.926 1.005 2.633v3.396c0 1.11 0.9 2.010 2.010 2.010h2.010c1.11 0 2.010-0.9 2.010-2.010v-2.010h16.078v2.010c0 1.11 0.9 2.010 2.010 2.010h2.010c1.11 0 2.010-0.9 2.010-2.010v-3.396c0.618-0.707 1.005-1.62 1.005-2.633v-3.015c0-1.717-1.082-3.172-2.596-3.748zM8.286 9.467c0.458-1.144 1.566-1.895 2.799-1.895h7.976c1.233 0 2.341 0.75 2.799 1.895l1.252 3.13h-16.078l1.252-3.13zM5.024 19.618c-1.206 0-2.010-0.801-2.010-2.003s0.804-2.003 2.010-2.003 3.015 1.803 3.015 3.005-1.809 1.002-3.015 1.002zM25.122 19.618c-1.206 0-3.015 0.2-3.015-1.002s1.809-3.005 3.015-3.005 2.010 0.801 2.010 2.004-0.804 2.003-2.010 2.003z"></path>
</symbol>
<symbol id="icon-chevron-down" viewBox="0 0 28 32">
<path d="M13.003 23.492l-12.206-12.206c-0.589-0.589-0.589-1.543 0-2.132l1.424-1.424c0.588-0.588 1.54-0.589 2.129-0.003l9.719 9.673 9.719-9.673c0.589-0.586 1.541-0.585 2.129 0.003l1.424 1.424c0.589 0.589 0.589 1.543 0 2.132l-12.206 12.206c-0.589 0.589-1.543 0.589-2.132 0z"></path>
</symbol>
<symbol id="icon-ellipsis-h" viewBox="0 0 32 32">
<path d="M20.6 15.611c0 2.5-2.022 4.522-4.522 4.522s-4.522-2.022-4.522-4.522 2.022-4.522 4.522-4.522 4.522 2.022 4.522 4.522zM27.132 11.089c-2.5 0-4.522 2.022-4.522 4.522s2.022 4.522 4.522 4.522 4.522-2.022 4.522-4.522-2.022-4.522-4.522-4.522zM5.024 11.089c-2.5 0-4.522 2.022-4.522 4.522s2.022 4.522 4.522 4.522 4.522-2.022 4.522-4.522-2.022-4.522-4.522-4.522z"></path>
</symbol>
<symbol id="icon-ellipsis-v" viewBox="0 0 12 32">
<path d="M6.029 11.089c2.5 0 4.522 2.022 4.522 4.522s-2.022 4.522-4.522 4.522-4.522-2.022-4.522-4.522 2.022-4.522 4.522-4.522zM1.507 4.557c0 2.5 2.022 4.522 4.522 4.522s4.522-2.022 4.522-4.522-2.022-4.522-4.522-4.522-4.522 2.022-4.522 4.522zM1.507 26.665c0 2.5 2.022 4.522 4.522 4.522s4.522-2.022 4.522-4.522-2.022-4.522-4.522-4.522-4.522 2.022-4.522 4.522z"></path>
</symbol>
<symbol id="icon-exclamation-circle" viewBox="0 0 32 32">
<path d="M31.654 15.611c0 8.604-6.974 15.576-15.576 15.576s-15.576-6.972-15.576-15.576c0-8.599 6.974-15.576 15.576-15.576s15.576 6.977 15.576 15.576zM16.078 18.752c-1.596 0-2.889 1.293-2.889 2.889s1.293 2.889 2.889 2.889 2.889-1.293 2.889-2.889-1.293-2.889-2.889-2.889zM13.335 8.367l0.466 8.542c0.022 0.4 0.352 0.713 0.752 0.713h3.049c0.4 0 0.731-0.313 0.753-0.713l0.466-8.542c0.024-0.432-0.32-0.795-0.753-0.795h-3.981c-0.432 0-0.776 0.363-0.752 0.795z"></path>
</symbol>
<symbol id="icon-location-arrow" viewBox="0 0 32 32">
<path d="M27.919-0.246l-26.113 12.053c-3.013 1.406-2.009 5.825 1.205 5.825h11.048v11.048c0 3.214 4.419 4.219 5.825 1.205l12.053-26.113c1.004-2.411-1.607-5.023-4.018-4.018z"></path>
</symbol>
<symbol id="icon-map-marked-alt" viewBox="0 0 36 32">
<path d="M18.088-0.467c-4.371 0-7.914 3.543-7.914 7.914 0 3.533 5.172 9.974 7.154 12.311 0.401 0.474 1.119 0.474 1.52 0 1.982-2.338 7.154-8.778 7.154-12.311 0-4.371-3.543-7.914-7.914-7.914zM18.088 10.084c-1.457 0-2.638-1.181-2.638-2.638s1.181-2.638 2.638-2.638 2.638 1.181 2.638 2.638-1.181 2.638-2.638 2.638zM1.264 13.096c-0.747 0.305-1.263 1.025-1.264 1.866v15.722c0 0.711 0.718 1.197 1.378 0.933l8.671-3.947v-14.639c-0.555-1.004-1.009-1.981-1.335-2.915l-7.451 2.98zM18.088 22.122c-0.884 0-1.72-0.388-2.293-1.065-1.235-1.457-2.548-3.116-3.736-4.818v11.431l12.059 4.020v-15.45c-1.188 1.701-2.501 3.361-3.736 4.818-0.573 0.676-1.409 1.065-2.293 1.065zM34.798 9.655l-8.671 3.947v18.088l8.785-3.514c0.747-0.304 1.264-1.025 1.264-1.866v0-15.722c0-0.711-0.718-1.197-1.378-0.933z"></path>
</symbol>
<symbol id="icon-minus-circle" viewBox="0 0 32 32">
<path d="M16.078 0.035c-8.604 0-15.576 6.971-15.576 15.576s6.971 15.576 15.576 15.576 15.576-6.971 15.576-15.576-6.971-15.576-15.576-15.576zM7.788 18.124c-0.415 0-0.754-0.339-0.754-0.754v-3.517c0-0.415 0.339-0.754 0.754-0.754h16.581c0.415 0 0.754 0.339 0.754 0.754v3.517c0 0.415-0.339 0.754-0.754 0.754h-16.581z"></path>
</symbol>
<symbol id="icon-route" viewBox="0 0 32 32">
<path d="M26.127 19.631h-6.029c-1.105 0-2.010-0.904-2.010-2.010s0.904-2.010 2.010-2.010h6.029s6.029-6.72 6.029-10.049-2.701-6.029-6.029-6.029-6.029 2.701-6.029 6.029c0 1.602 1.394 3.982 2.845 6.029h-2.845c-3.322 0-6.029 2.707-6.029 6.029s2.707 6.029 6.029 6.029h6.029c1.105 0 2.010 0.904 2.010 2.010s-0.904 2.010-2.010 2.010h-14.477c-1.005 1.558-2.123 2.996-2.971 4.020h17.448c3.322 0 6.029-2.707 6.029-6.029s-2.707-6.029-6.029-6.029zM26.127 3.553c1.112 0 2.010 0.898 2.010 2.010s-0.898 2.010-2.010 2.010-2.010-0.898-2.010-2.010 0.898-2.010 2.010-2.010zM6.029 15.611c-3.329 0-6.029 2.701-6.029 6.029s6.029 10.049 6.029 10.049 6.029-6.72 6.029-10.049-2.701-6.029-6.029-6.029zM6.029 23.651c-1.112 0-2.010-0.898-2.010-2.010s0.898-2.010 2.010-2.010 2.010 0.898 2.010 2.010-0.898 2.010-2.010 2.010z"></path>
</symbol>
<symbol id="icon-ruler" viewBox="0 0 40 32">
<path d="M39.926 10.034l-4.999-8.51c-0.553-0.942-1.777-1.262-2.732-0.722l-4.334 2.456 3.75 6.387c0.138 0.239 0.057 0.534-0.182 0.672l-0.867 0.49c-0.239 0.138-0.546 0.057-0.685-0.182l-3.75-6.381-3.467 1.966 1.752 2.977c0.138 0.239 0.057 0.534-0.182 0.672l-0.867 0.49c-0.239 0.138-0.546 0.057-0.685-0.182l-1.752-2.971-3.467 1.966 3.756 6.387c0.138 0.232 0.057 0.534-0.182 0.672l-0.867 0.49c-0.239 0.138-0.546 0.057-0.685-0.182l-3.75-6.387-3.467 1.966 1.752 2.977c0.138 0.239 0.057 0.534-0.182 0.672l-0.867 0.49c-0.239 0.138-0.546 0.057-0.685-0.182l-1.752-2.983-3.467 1.966 3.75 6.387c0.138 0.232 0.057 0.534-0.182 0.672l-0.867 0.49c-0.239 0.138-0.546 0.057-0.685-0.182l-3.75-6.369-4.334 2.456c-0.955 0.546-1.288 1.746-0.735 2.688l4.999 8.517c0.553 0.942 1.777 1.262 2.732 0.722l31.202-17.705c0.955-0.54 1.281-1.746 0.729-2.688z"></path>
</symbol>
<symbol id="icon-search" viewBox="0 0 32 32">
<path d="M31.717 27.337l-6.262-6.262c-0.283-0.283-0.666-0.44-1.068-0.44h-1.024c1.733-2.217 2.763-5.006 2.763-8.039 0-7.216-5.847-13.064-13.064-13.064s-13.064 5.847-13.064 13.064 5.847 13.064 13.064 13.064c3.034 0 5.822-1.030 8.039-2.763v1.024c0 0.402 0.157 0.785 0.44 1.068l6.262 6.262c0.59 0.59 1.545 0.59 2.129 0l1.777-1.777c0.59-0.59 0.59-1.545 0.006-2.135zM13.064 20.636c-4.44 0-8.039-3.593-8.039-8.039 0-4.44 3.592-8.039 8.039-8.039 4.44 0 8.039 3.592 8.039 8.039 0 4.44-3.593 8.039-8.039 8.039z"></path>
</symbol>
<symbol id="icon-tag" viewBox="0 0 32 32">
<path d="M0 15.368v-12.82c0-1.665 1.35-3.015 3.015-3.015h12.82c0.832 0 1.586 0.338 2.132 0.883l13.307 13.307c1.177 1.177 1.177 3.086 0 4.263l-12.82 12.82c-1.177 1.177-3.086 1.177-4.263 0l-13.307-13.307c-0.546-0.546-0.883-1.299-0.883-2.132v0zM7.034 3.553c-1.665 0-3.015 1.35-3.015 3.015s1.35 3.015 3.015 3.015 3.015-1.35 3.015-3.015-1.35-3.015-3.015-3.015z"></path>
</symbol>
<symbol id="icon-terminal" viewBox="0 0 40 32">
<path d="M16.203 16.677l-12.206 12.206c-0.589 0.589-1.543 0.589-2.132 0l-1.424-1.424c-0.588-0.588-0.589-1.54-0.003-2.129l9.674-9.719-9.673-9.719c-0.586-0.589-0.585-1.542 0.003-2.129l1.424-1.424c0.589-0.589 1.543-0.589 2.132 0l12.206 12.206c0.589 0.589 0.589 1.543 0 2.132zM40.196 28.173v-2.010c0-0.832-0.675-1.507-1.507-1.507h-19.093c-0.832 0-1.507 0.675-1.507 1.507v2.010c0 0.832 0.675 1.507 1.507 1.507h19.093c0.833 0 1.507-0.675 1.507-1.507z"></path>
</symbol>
<symbol id="icon-user-tie" viewBox="0 0 28 32">
<path d="M14.069 15.611c4.44 0 8.039-3.599 8.039-8.039s-3.599-8.039-8.039-8.039-8.039 3.599-8.039 8.039 3.599 8.039 8.039 8.039zM20.085 17.659l-3.002 12.021-2.010-8.542 2.010-3.517h-6.029l2.010 3.517-2.010 8.542-3.002-12.021c-4.478 0.214-8.052 3.875-8.052 8.403v2.613c0 1.664 1.35 3.015 3.015 3.015h22.108c1.664 0 3.015-1.35 3.015-3.015v-2.613c0-4.528-3.574-8.19-8.052-8.403z"></path>
</symbol>
<symbol id="icon-exe-file-format-symbol" viewBox="0 0 32 32">
<path d="M27.737 7.239c-0.002-0.148-0.049-0.293-0.15-0.408l-6.2-7.082c-0.001-0.002-0.003-0.003-0.005-0.004-0.037-0.041-0.079-0.075-0.125-0.105-0.013-0.009-0.027-0.017-0.041-0.025-0.040-0.021-0.081-0.039-0.124-0.052-0.012-0.003-0.022-0.008-0.034-0.011-0.047-0.011-0.095-0.018-0.145-0.018h-15.238c-0.695 0-1.261 0.566-1.261 1.261v29.635c0 0.696 0.566 1.261 1.261 1.261h20.807c0.696 0 1.261-0.566 1.261-1.261v-23.119c-0-0.024-0.004-0.047-0.006-0.071zM20.204 13.169c0.009-0.005 0.018-0.010 0.028-0.015 0.063-0.032 0.129-0.059 0.193-0.087 0.047-0.020 0.093-0.042 0.14-0.060 0.019-0.007 0.040-0.013 0.059-0.020 1.049-0.374 2.258-0.25 3.233 0.443 1.585 1.127 1.958 3.331 0.832 4.918-0.571 0.803-1.42 1.294-2.325 1.438-0.103 0.016-0.207 0.030-0.31 0.037-0.003 0-0.006 0-0.007 0-1.779 0.114-3.396-1.136-3.7-2.932-0.262-1.548 0.533-3.036 1.858-3.723zM5.675 0.794h14.607v6.452c0 0.348 0.282 0.631 0.631 0.631h5.569v3.040l-1.292-0.917c-0.081-0.058-0.129-0.028-0.165-0.004-0 0-0.001 0.001-0.001 0.001-0.002 0.001-0.006 0.001-0.007 0.002-0.202 0.133-0.422 0.232-0.651 0.297-0.015 0.004-0.030 0.007-0.046 0.011-0.059 0.015-0.117 0.030-0.177 0.041-0.313 0.057-0.638 0.051-0.951-0.022-0.626-0.141-1.176-0.542-1.507-1.094-0.030-0.050-0.090-0.078-0.149-0.068l-1.788 0.303c-0.059 0.010-0.107 0.057-0.12 0.114-0.13 0.631-0.517 1.189-1.062 1.529-0.543 0.343-1.218 0.45-1.842 0.292-0.039-0.009-0.095-0.024-0.154 0.058l-0.727 1.021c-0.002-0.001-0.005-0.002-0.007-0.003l-0.328 0.461c-0.034 0.048-0.034 0.116-0.003 0.166 0.353 0.539 0.473 1.206 0.33 1.832-0.144 0.628-0.543 1.179-1.096 1.508-0.050 0.030-0.078 0.091-0.069 0.15l0.303 1.788c0.017 0.099 0.072 0.111 0.114 0.12 0.626 0.128 1.189 0.516 1.529 1.063 0.26 0.412 0.383 0.897 0.36 1.38h-11.303v-20.151zM12.088 30.019h-4.88v-7.648h4.721v1.418h-2.985v1.589h2.815v1.407h-2.815v1.816h3.143v1.418zM17.298 30.019l-0.693-1.384c-0.283-0.533-0.465-0.93-0.68-1.373h-0.023c-0.159 0.443-0.352 0.84-0.59 1.373l-0.635 1.384h-1.974l2.213-3.87-2.133-3.779h1.986l0.669 1.396c0.227 0.465 0.397 0.84 0.579 1.271h0.023c0.182-0.488 0.329-0.828 0.522-1.271l0.646-1.396h1.975l-2.156 3.734 2.27 3.915-1.997-0zM25.106 30.019h-4.88v-7.648h4.72v1.418h-2.985v1.589h2.815v1.407h-2.815v1.816h3.144v1.418zM14.285 14.194c-0.22-0.19-0.355-0.466-0.37-0.756s0.091-0.579 0.29-0.791c0.019-0.020 0.023-0.049 0.012-0.073l-0.242-0.509c0.001-0.001 0.002-0.002 0.004-0.002l-0.11-0.231c-0.004-0.009-0.011-0.014-0.019-0.020-0.001-0.001-0.002-0.002-0.003-0.003-0.003-0.003-0.006-0.005-0.010-0.007-0.009-0.004-0.017-0.007-0.025-0.006-0.003-0-0.006-0.002-0.008-0.002-0.29 0.021-0.58-0.079-0.795-0.273s-0.346-0.473-0.354-0.764c-0.001-0.026-0.019-0.051-0.044-0.060l-0.772-0.274c-0.042-0.015-0.059 0.004-0.072 0.019-0 0-0 0-0 0.001-0.001 0-0.002 0.001-0.003 0.002-0.071 0.082-0.154 0.153-0.246 0.209-0.006 0.004-0.012 0.007-0.018 0.010-0.023 0.014-0.047 0.027-0.072 0.039-0.129 0.063-0.271 0.101-0.416 0.108-0.29 0.016-0.578-0.091-0.79-0.29-0.019-0.018-0.049-0.023-0.073-0.011l-0.74 0.352c-0.025 0.012-0.040 0.038-0.038 0.064 0.021 0.29-0.078 0.581-0.273 0.796-0.194 0.216-0.474 0.346-0.765 0.354-0.018 0.002-0.044 0.002-0.060 0.044l-0.19 0.534c-0.001 0-0.002 0-0.003-0.001l-0.086 0.241c-0.009 0.025-0 0.055 0.020 0.073 0.22 0.19 0.355 0.466 0.369 0.755 0.015 0.291-0.091 0.579-0.29 0.791-0.018 0.019-0.023 0.049-0.011 0.073l0.353 0.741c0.020 0.041 0.045 0.039 0.064 0.038 0.288-0.021 0.58 0.078 0.795 0.274 0.216 0.194 0.345 0.473 0.354 0.763 0.001 0.027 0.018 0.051 0.043 0.060l0.772 0.273c0.005 0.002 0.010 0.001 0.015 0.001 0.035 0.008 0.051-0.008 0.062-0.022 0.049-0.056 0.102-0.107 0.161-0.151 0.003-0.002 0.006-0.004 0.008-0.006 0.025-0.020 0.052-0.037 0.078-0.054 0.020-0.012 0.042-0.024 0.063-0.035 0.010-0.006 0.020-0.011 0.030-0.016 0.128-0.062 0.269-0.099 0.412-0.106 0.289-0.016 0.579 0.091 0.791 0.29 0.013 0.012 0.032 0.030 0.073 0.011l0.74-0.352c0.001-0 0.001-0.001 0.002-0.001l0.002-0.001c0.025-0.012 0.039-0.037 0.038-0.064-0.021-0.29 0.078-0.58 0.273-0.796 0.113-0.125 0.255-0.22 0.411-0.281 0.008-0.003 0.016-0.007 0.024-0.009 0.013-0.005 0.027-0.008 0.041-0.013 0.022-0.007 0.045-0.014 0.067-0.020 0.004-0.001 0.007-0.001 0.010-0.002 0.067-0.015 0.136-0.025 0.206-0.027 0.027-0.001 0.051-0.018 0.060-0.044l0.275-0.772c0.009-0.026 0.001-0.054-0.019-0.072zM12.651 14.114c-0.149 0.42-0.458 0.738-0.833 0.912-0.043 0.020-0.086 0.039-0.13 0.054-0.001 0-0.002 0.001-0.004 0.001-0.759 0.269-1.616-0.075-1.97-0.818-0.304-0.64-0.142-1.386 0.349-1.847 0.003-0.003 0.007-0.007 0.010-0.010 0.023-0.021 0.048-0.041 0.073-0.061 0.018-0.015 0.035-0.030 0.053-0.043 0.007-0.005 0.016-0.010 0.023-0.016 0.41-0.292 0.951-0.387 1.46-0.206 0.828 0.294 1.263 1.206 0.969 2.034zM13.248 7.344c0.014 0.29-0.091 0.579-0.29 0.791-0.018 0.019-0.023 0.049-0.012 0.073l0.353 0.74c0.020 0.041 0.045 0.039 0.065 0.038 0.287-0.022 0.58 0.078 0.795 0.273 0.216 0.194 0.345 0.473 0.354 0.764 0.001 0.027 0.018 0.051 0.044 0.060l0.772 0.274c0.005 0.001 0.010 0 0.015 0.001 0.035 0.008 0.050-0.008 0.061-0.022 0.049-0.056 0.102-0.107 0.161-0.151 0.002-0.002 0.006-0.004 0.008-0.005 0.025-0.019 0.051-0.037 0.078-0.054 0.020-0.012 0.042-0.024 0.063-0.034 0.010-0.006 0.020-0.011 0.030-0.016 0.128-0.062 0.268-0.099 0.412-0.106 0.289-0.016 0.58 0.090 0.791 0.29 0.013 0.012 0.033 0.031 0.074 0.011l0.74-0.352c0.001 0 0.001-0.001 0.002-0.001l0.003-0.001c0.025-0.012 0.039-0.037 0.038-0.064-0.021-0.29 0.079-0.58 0.274-0.796 0.113-0.125 0.256-0.221 0.411-0.281 0.007-0.003 0.016-0.007 0.024-0.009 0.013-0.005 0.027-0.009 0.041-0.013 0.022-0.007 0.044-0.014 0.067-0.020 0.003-0.001 0.006-0.001 0.010-0.002 0.067-0.015 0.136-0.025 0.206-0.027 0.027-0.001 0.051-0.018 0.060-0.044l0.275-0.772c0.009-0.026 0.001-0.054-0.019-0.072-0.22-0.19-0.355-0.466-0.37-0.756-0.014-0.291 0.091-0.579 0.29-0.791 0.018-0.019 0.023-0.049 0.011-0.073l-0.241-0.508c0.001-0.001 0.002-0.002 0.004-0.002l-0.11-0.231c-0.004-0.009-0.012-0.014-0.018-0.020-0.001-0.001-0.002-0.002-0.003-0.003-0.004-0.002-0.006-0.005-0.010-0.007-0.009-0.004-0.018-0.006-0.025-0.006-0.003-0-0.006-0.002-0.008-0.002-0.29 0.021-0.58-0.079-0.796-0.273s-0.345-0.473-0.354-0.764c-0-0.027-0.018-0.051-0.044-0.060l-0.772-0.274c-0.043-0.015-0.060 0.004-0.073 0.019 0 0 0 0 0 0-0.001 0.001-0.002 0.001-0.003 0.002-0.071 0.082-0.155 0.153-0.246 0.209-0.006 0.003-0.013 0.007-0.018 0.010-0.024 0.014-0.047 0.027-0.072 0.039-0.129 0.063-0.271 0.101-0.416 0.108-0.29 0.015-0.578-0.091-0.79-0.29-0.020-0.018-0.049-0.023-0.073-0.011l-0.74 0.353c-0.025 0.012-0.039 0.038-0.038 0.064 0.021 0.29-0.078 0.581-0.273 0.797-0.194 0.216-0.474 0.346-0.765 0.354-0.018 0.001-0.044 0.001-0.060 0.045l-0.19 0.533c-0.001-0-0.002 0-0.003-0l-0.086 0.241c-0.009 0.026-0.001 0.055 0.020 0.073 0.221 0.19 0.356 0.465 0.37 0.755zM14.929 6.036c0.004-0.003 0.007-0.007 0.010-0.010 0.023-0.022 0.049-0.041 0.073-0.062 0.018-0.014 0.035-0.030 0.053-0.043 0.008-0.005 0.016-0.010 0.023-0.016 0.41-0.292 0.95-0.387 1.46-0.206 0.828 0.294 1.262 1.206 0.968 2.035-0.149 0.42-0.457 0.738-0.833 0.912-0.043 0.020-0.086 0.039-0.13 0.054-0.001 0-0.002 0.001-0.004 0.001-0.759 0.269-1.616-0.075-1.97-0.818-0.305-0.64-0.143-1.385 0.349-1.847z"></path>
</symbol>
<symbol id="icon-pdf-file-format-symbol" viewBox="0 0 32 32">
<path d="M15.608 23.744c-0.386 0-0.635 0.034-0.783 0.068v5.004c0.148 0.034 0.386 0.034 0.602 0.034 1.566 0.011 2.587-0.851 2.587-2.678 0.011-1.589-0.919-2.429-2.406-2.429zM8.923 23.721c-0.352 0-0.59 0.034-0.715 0.068v2.259c0.148 0.034 0.329 0.045 0.578 0.045 0.92 0 1.487-0.466 1.487-1.248 0-0.703-0.488-1.123-1.35-1.123zM27.737 7.239c-0.002-0.148-0.049-0.293-0.15-0.408l-6.2-7.082c-0.001-0.002-0.004-0.003-0.005-0.004-0.037-0.041-0.079-0.075-0.125-0.105-0.013-0.009-0.028-0.017-0.042-0.025-0.039-0.021-0.081-0.039-0.124-0.052-0.011-0.003-0.022-0.008-0.034-0.011-0.047-0.011-0.095-0.018-0.144-0.018h-15.238c-0.695 0-1.261 0.566-1.261 1.261v29.635c0 0.696 0.566 1.261 1.261 1.261h20.807c0.695 0 1.261-0.566 1.261-1.261v-23.119c-0-0.024-0.004-0.047-0.006-0.071zM11.283 26.615c-0.59 0.556-1.464 0.806-2.485 0.806-0.227 0-0.431-0.012-0.59-0.034v2.735h-1.713v-7.547c0.533-0.091 1.282-0.159 2.338-0.159 1.066 0 1.827 0.204 2.337 0.613 0.488 0.386 0.816 1.022 0.816 1.77s-0.249 1.385-0.703 1.816zM18.58 29.214c-0.805 0.669-2.030 0.987-3.528 0.987-0.897 0-1.532-0.057-1.964-0.113v-7.513c0.636-0.102 1.464-0.159 2.338-0.159 1.452 0 2.394 0.261 3.132 0.817 0.795 0.59 1.294 1.532 1.294 2.882-0.001 1.464-0.534 2.474-1.272 3.099zM25.663 23.891h-2.94v1.747h2.746v1.408h-2.746v3.075h-1.736v-7.648h4.675v1.418zM5.675 20.945v-20.151h14.607v6.452c0 0.348 0.282 0.631 0.631 0.631h5.569l0.001 13.068h-20.808zM22.547 13.085c-0.037-0.003-0.925-0.085-2.289-0.085-0.427 0-0.858 0.008-1.283 0.024-2.693-2.021-4.899-4.044-6.080-5.178 0.022-0.125 0.036-0.223 0.043-0.299 0.156-1.644-0.017-2.754-0.513-3.299-0.324-0.356-0.801-0.475-1.298-0.339-0.309 0.081-0.88 0.38-1.063 0.99-0.202 0.673 0.123 1.491 0.975 2.439 0.013 0.014 0.303 0.318 0.829 0.831-0.342 1.63-1.236 5.146-1.67 6.835-1.020 0.545-1.869 1.201-2.527 1.954l-0.043 0.049-0.028 0.059c-0.068 0.142-0.391 0.881-0.148 1.474 0.111 0.27 0.319 0.467 0.601 0.57l0.076 0.020c0 0 0.068 0.015 0.188 0.015 0.526 0 1.824-0.276 2.521-2.843l0.169-0.65c2.431-1.182 5.47-1.563 7.672-1.669 1.133 0.84 2.26 1.612 3.353 2.295l0.036 0.021c0.053 0.027 0.532 0.264 1.093 0.264v0c0.802 0 1.387-0.492 1.605-1.349l0.011-0.059c0.061-0.49-0.062-0.932-0.356-1.277-0.619-0.727-1.771-0.791-1.874-0.794zM8.338 18.2c-0.005-0.006-0.007-0.011-0.010-0.018-0.052-0.126 0.010-0.431 0.103-0.655 0.396-0.443 0.872-0.85 1.422-1.217-0.535 1.732-1.313 1.881-1.515 1.889zM11.734 6.696v0c-0.822-0.914-0.809-1.368-0.765-1.52 0.072-0.255 0.4-0.351 0.403-0.352 0.165-0.045 0.265-0.036 0.354 0.062 0.201 0.221 0.375 0.889 0.306 2.114-0.194-0.195-0.298-0.303-0.298-0.303zM11.309 14.483l0.014-0.054-0.002 0.001c0.411-1.611 1.004-3.97 1.346-5.485l0.012 0.012 0.001-0.007c1.103 1.039 2.795 2.559 4.821 4.14l-0.023 0.001 0.034 0.025c-1.908 0.161-4.188 0.537-6.203 1.368zM23.842 15.011c-0.145 0.534-0.425 0.607-0.681 0.607v0c-0.297 0-0.584-0.124-0.649-0.154-0.744-0.466-1.505-0.974-2.273-1.518 0.006 0 0.012 0 0.018 0 1.316 0 2.193 0.080 2.228 0.082 0.22 0.008 0.916 0.111 1.216 0.463 0.118 0.138 0.163 0.303 0.141 0.519z"></path>
</symbol>
<symbol id="icon-xlsx-file-format" viewBox="0 0 32 32">
<path d="M27.737 7.239c-0.002-0.148-0.048-0.293-0.15-0.408l-6.201-7.082c-0.001-0.002-0.003-0.002-0.005-0.004-0.037-0.041-0.079-0.075-0.125-0.105-0.013-0.009-0.027-0.017-0.041-0.025-0.040-0.021-0.081-0.039-0.124-0.052-0.012-0.004-0.022-0.008-0.034-0.011-0.047-0.011-0.095-0.018-0.145-0.018h-15.238c-0.695 0-1.261 0.566-1.261 1.261v29.635c0 0.695 0.566 1.261 1.261 1.261h20.807c0.696 0 1.261-0.566 1.261-1.261v-23.119c0-0.024-0.004-0.047-0.006-0.070zM9.709 29.339l-0.548-1.097c-0.225-0.423-0.368-0.737-0.539-1.088h-0.018c-0.126 0.35-0.279 0.665-0.467 1.088l-0.504 1.097h-1.564l1.753-3.066-1.69-2.993h1.573l0.53 1.106c0.18 0.368 0.315 0.664 0.459 1.006h0.018c0.144-0.387 0.261-0.656 0.413-1.006l0.513-1.106h1.564l-1.708 2.957 1.798 3.102h-1.583zM15.811 29.339h-3.784v-6.059h1.375v4.907h2.409v1.151zM18.103 29.429c-0.692 0-1.375-0.18-1.716-0.368l0.278-1.132c0.369 0.188 0.935 0.377 1.519 0.377 0.63 0 0.962-0.26 0.962-0.656 0-0.377-0.288-0.593-1.016-0.853-1.006-0.35-1.663-0.908-1.663-1.789 0-1.034 0.863-1.824 2.292-1.824 0.683 0 1.187 0.143 1.546 0.306l-0.305 1.106c-0.243-0.117-0.674-0.288-1.268-0.288s-0.88 0.269-0.88 0.585c0 0.386 0.341 0.557 1.123 0.853 1.070 0.396 1.573 0.953 1.573 1.807 0 1.016-0.782 1.878-2.445 1.878zM24.664 29.339l-0.549-1.097c-0.225-0.423-0.368-0.737-0.539-1.088h-0.017c-0.126 0.35-0.279 0.665-0.468 1.088l-0.503 1.097h-1.564l1.753-3.066-1.69-2.993h1.573l0.531 1.106c0.18 0.368 0.314 0.664 0.458 1.006h0.018c0.143-0.387 0.26-0.656 0.413-1.006l0.512-1.106h1.564l-1.708 2.957 1.798 3.102h-1.582zM5.675 20.945v-20.151h14.607v6.452c0 0.348 0.282 0.631 0.631 0.631h5.569l0.001 13.068h-20.808zM18.236 7.627h-10.456v9.773h15.999v-9.773h-5.543zM18.236 12.356h-4.913v-2.049h4.913v2.049zM8.095 7.942h4.913v2.049h-4.913v-2.049zM8.095 10.307h4.913v2.049h-4.913v-2.049zM8.095 12.671h4.913v2.049h-4.913v-2.049zM8.095 17.085v-2.049h4.913v2.049h-4.913zM13.323 17.085v-2.049h4.913v2.049h-4.913zM23.464 17.085h-4.913v-2.049h4.913v2.049h0zM23.464 12.356h-4.913v-2.049h4.913v2.049h0zM18.551 9.991v-2.049h4.913v2.049h-4.913z"></path>
</symbol>
<symbol id="icon-location1" viewBox="0 0 32 32">
<path d="M16.047 9.933c-3.209 0-5.835 2.626-5.835 5.835s2.626 5.835 5.835 5.835c3.209 0 5.835-2.626 5.835-5.835s-2.626-5.835-5.835-5.835zM29.030 14.309c-0.729-6.127-5.544-10.941-11.525-11.525v-3.064h-2.918v3.064c-6.127 0.583-10.941 5.398-11.525 11.525h-3.064v2.918h3.064c0.729 6.127 5.543 10.941 11.525 11.525v3.064h2.918v-3.064c6.127-0.729 10.941-5.544 11.525-11.525h3.064v-2.918h-3.064zM16.047 25.98c-5.689 0-10.212-4.522-10.212-10.212s4.522-10.212 10.212-10.212 10.212 4.522 10.212 10.212-4.522 10.212-10.212 10.212z"></path>
</symbol>
<symbol id="icon-pentagon" viewBox="0 0 32 32">
<path d="M15.927 0.483c-1.213 0-2.202 0.924-2.317 2.108l-10.896 7.953c-0.12-0.018-0.248-0.042-0.376-0.042-1.292 0-2.338 1.046-2.338 2.338 0 0.929 0.532 1.73 1.315 2.108l4.217 13.005c-0.117 0.279-0.188 0.595-0.188 0.918 0 1.292 1.046 2.338 2.338 2.338 0.634 0 1.208-0.258 1.628-0.668h13.443c0.42 0.41 0.994 0.668 1.628 0.668 1.292 0 2.338-1.046 2.338-2.338 0-0.324-0.070-0.639-0.188-0.918l4.217-13.005c0.783-0.378 1.315-1.179 1.315-2.108 0-1.292-1.046-2.338-2.338-2.338-0.128 0-0.256 0.024-0.376 0.042l-11.147-8.141c-0.196-1.093-1.125-1.92-2.275-1.92zM17.012 4.867l10.416 7.577c-0.021 0.128-0.042 0.264-0.042 0.397 0 0.644 0.266 1.226 0.689 1.649l-3.924 12.065c-0.835 0.081-1.534 0.587-1.879 1.315h-12.483c-0.344-0.728-1.044-1.234-1.879-1.315l-3.924-12.065c0.423-0.423 0.689-1.005 0.689-1.649 0-0.133-0.021-0.269-0.042-0.397l10.312-7.494c0.295 0.136 0.634 0.209 0.981 0.209 0.399 0 0.757-0.115 1.085-0.292z"></path>
</symbol>
<symbol id="icon-full-screen" viewBox="0 0 32 32">
<path d="M0.412 0.227v9.865c-0.010 0.594 0.302 1.143 0.816 1.442 0.511 0.302 1.146 0.302 1.657 0 0.514-0.299 0.825-0.848 0.816-1.442v-6.577h6.577c0.594 0.010 1.143-0.302 1.442-0.816 0.302-0.511 0.302-1.146 0-1.657-0.299-0.514-0.848-0.825-1.442-0.816zM21.786 0.227c-0.909-0.032-1.67 0.678-1.702 1.586-0.032 0.906 0.678 1.67 1.586 1.702 0.039 0 0.077 0 0.116 0h6.577v6.577c-0.013 0.864 0.645 1.59 1.503 1.66 0.055 0.006 0.109 0.006 0.167 0.006 0.906-0.013 1.631-0.758 1.619-1.667v-9.865zM2.030 20.757c-0.906 0.013-1.631 0.758-1.619 1.667v9.865h9.865c0.055 0 0.109 0 0.164-0.006 0.88-0.080 1.538-0.838 1.493-1.718-0.042-0.883-0.774-1.573-1.657-1.564h-6.577v-6.577c0.006-0.443-0.167-0.87-0.482-1.185s-0.742-0.488-1.188-0.482zM29.981 20.757c-0.906 0.013-1.631 0.758-1.619 1.667v6.577h-6.577c-0.594-0.010-1.143 0.302-1.442 0.816-0.302 0.511-0.302 1.146 0 1.657 0.299 0.514 0.848 0.825 1.442 0.816h9.865v-9.865c0.006-0.443-0.167-0.87-0.482-1.185s-0.742-0.488-1.188-0.482z"></path>
</symbol>
<symbol id="icon-normal-screen" viewBox="0 0 32 32">
<path d="M9.603-0.183c-0.882 0.012-1.588 0.738-1.576 1.623v6.403h-6.403c-0.578-0.009-1.113 0.294-1.404 0.794-0.294 0.497-0.294 1.116 0 1.613 0.291 0.5 0.825 0.803 1.404 0.794h9.605v-9.605c0.006-0.431-0.163-0.847-0.469-1.154s-0.722-0.475-1.157-0.469zM22.409-0.183c-0.838 0.012-1.526 0.672-1.573 1.51-0.003 0.038-0.003 0.075-0.003 0.113v9.605h9.605c0.053 0 0.106 0 0.159-0.006 0.857-0.078 1.498-0.816 1.454-1.673-0.041-0.86-0.754-1.532-1.613-1.523h-6.403v-6.403c0.006-0.431-0.163-0.847-0.469-1.154s-0.722-0.475-1.157-0.469zM1.624 20.649c-0.578-0.009-1.113 0.294-1.404 0.794-0.294 0.497-0.294 1.116 0 1.613 0.291 0.5 0.825 0.803 1.404 0.794h6.403v6.403c-0.009 0.578 0.294 1.113 0.794 1.404 0.497 0.294 1.116 0.294 1.613 0 0.5-0.291 0.803-0.825 0.794-1.404v-9.605zM20.834 20.649v9.605c-0.009 0.578 0.294 1.113 0.794 1.404 0.497 0.294 1.116 0.294 1.613 0 0.5-0.291 0.803-0.825 0.794-1.404v-6.403h6.403c0.578 0.009 1.113-0.294 1.404-0.794 0.294-0.497 0.294-1.116 0-1.613-0.291-0.5-0.825-0.803-1.404-0.794z"></path>
</symbol>
<symbol id="icon-filter-alt" viewBox="0 0 32 32">
<path d="M2.466-0.185c-1.363 0-2.466 1.103-2.466 2.466l11.099 12.332v11.6c0 1.363 1.103 2.924 2.466 3.468l4.933 1.965c0.323 0.13 0.641 0.193 0.925 0.193 0.91 0 1.541-0.621 1.541-1.657v-15.569l11.099-12.332c0-1.363-1.103-2.466-2.466-2.466zM3.314 2.282h25.434l-8.863 9.865h-7.669zM13.565 14.613h4.933v14.374l-4.008-1.619c-0.472-0.188-0.925-0.857-0.925-1.156z"></path>
</symbol>
<symbol id="icon-direction" viewBox="0 0 32 32">
<path d="M31.039 13.765l-12.801-12.801c-1.275-1.281-3.2-1.281-4.475 0l-12.801 12.801c-1.281 1.275-1.281 3.2 0 4.475l12.801 12.801c1.275 1.281 3.2 1.281 4.475 0l12.801-12.801c1.281-1.275 1.281-3.2 0-4.475zM19.2 20.004v-4h-6.401v4.8h-3.2v-4.8c0-1.763 1.438-3.2 3.2-3.2h6.401v-4l5.601 5.601z"></path>
</symbol>
<symbol id="icon-drag-dot" viewBox="0 0 32 32">
<path d="M16 0.003c-2.41 0-4.364 1.954-4.364 4.364v0c0 2.41 1.954 4.364 4.364 4.364v0c2.41 0 4.364-1.954 4.364-4.364v0c0-2.41-1.954-4.364-4.364-4.364v0zM16 11.639c-2.41 0-4.364 1.954-4.364 4.364v0c0 2.41 1.954 4.364 4.364 4.364v0c2.41 0 4.364-1.954 4.364-4.364v0c0-2.41-1.954-4.364-4.364-4.364v0zM16 23.276c-2.41 0-4.364 1.954-4.364 4.364v0c0 2.41 1.954 4.364 4.364 4.364v0c2.41 0 4.364-1.954 4.364-4.364v0c0-2.41-1.954-4.364-4.364-4.364v0z"></path>
</symbol>
<symbol id="icon-add" viewBox="0 0 32 32">
<path d="M16 0.003c-8.836 0-16 7.164-16 16s7.164 16 16 16 16-7.164 16-16c0-8.836-7.164-16-16-16zM22.667 17.336h-5.333v5.333c0 0.737-0.597 1.333-1.333 1.333s-1.333-0.596-1.333-1.333v-5.333h-5.333c-0.736 0-1.333-0.596-1.333-1.333s0.597-1.333 1.333-1.333h5.333v-5.333c0-0.737 0.597-1.333 1.333-1.333s1.333 0.596 1.333 1.333v5.333h5.333c0.736 0 1.333 0.596 1.333 1.333s-0.597 1.333-1.333 1.333z"></path>
</symbol>
</defs>
</svg>
