<?xml version="1.0" encoding="utf-8"?>
<!-- Generator: Adobe Illustrator 22.0.0, SVG Export Plug-In . SVG Version: 6.00 Build 0)  -->
<svg version="1.1" id="Capa_1" xmlns="http://www.w3.org/2000/svg" xmlns:xlink="http://www.w3.org/1999/xlink" x="0px" y="0px"
	 viewBox="0 0 100 100" style="enable-background:new 0 0 100 100;" xml:space="preserve">
<style type="text/css">
	.st0{fill:#33CC33;}
	.st1{fill:url(#SVGID_1_);}
	.st2{fill:url(#SVGID_2_);}
	.st3{fill:#5A5B5D;}
	.st4{fill:url(#SVGID_3_);}
	.st5{fill:url(#SVGID_4_);}
	.st6{fill:url(#SVGID_5_);}
	.st7{fill:url(#SVGID_6_);}
</style>
<g>
	<path class="st0" d="M61.8,2.7H38.2c-6.3,0-11.4,7-11.4,13.3V86c0,6.3,5.1,11.4,11.4,11.4h23.7c6.3,0,11.4-5.1,11.4-11.4V15.9
		C73.2,9.6,68.1,2.7,61.8,2.7z M71.2,31.2v23.5l-5.5,0.7v-9.7L71.2,31.2z M68.3,24.3c-2,7.9-4.5,17.1-4.5,17.1H36.1l-4.5-17.1
		C31.7,24.3,49.6,18.3,68.3,24.3z M34.3,46.4v9l-5.5-0.7V31.9L34.3,46.4z M28.8,79V58.2l5.5,0.7v16.5L28.8,79z M32,85l4.5-6.7h27.7
		l4.5,6.7H32z M65.7,74.7V58.9l5.5-0.7v20.2L65.7,74.7z"/>
</g>
<g>
	<linearGradient id="SVGID_1_" gradientUnits="userSpaceOnUse" x1="49.9945" y1="57.6998" x2="49.9945" y2="55.2777">
		<stop  offset="0" style="stop-color:#5A5B5D"/>
		<stop  offset="0.8829" style="stop-color:#2A2627"/>
		<stop  offset="1" style="stop-color:#231F20"/>
	</linearGradient>
	<path class="st1" d="M45,55.2v1.6c0,0.5,0.4,0.9,0.8,0.9h8.4c0.5,0,0.8-0.4,0.8-0.9v-1.6H45z"/>
	<linearGradient id="SVGID_2_" gradientUnits="userSpaceOnUse" x1="49.995" y1="52.6357" x2="49.995" y2="54.6319">
		<stop  offset="0" style="stop-color:#5A5B5D"/>
		<stop  offset="0.8829" style="stop-color:#2A2627"/>
		<stop  offset="1" style="stop-color:#231F20"/>
	</linearGradient>
	<path class="st2" d="M55.5,54.1c0-0.6-0.4-1-0.9-1h-9.3c-0.5,0-0.9,0.4-0.9,1v1h11.1V54.1z"/>
	<rect x="44.5" y="54.6" class="st3" width="11.1" height="0.6"/>
</g>
<g>
	<linearGradient id="SVGID_3_" gradientUnits="userSpaceOnUse" x1="44.4245" y1="89.2209" x2="44.4245" y2="94.1414">
		<stop  offset="0" style="stop-color:#5A5B5D"/>
		<stop  offset="0.8829" style="stop-color:#2A2627"/>
		<stop  offset="1" style="stop-color:#231F20"/>
	</linearGradient>
	<path class="st4" d="M42.4,89.2h4v1.2h-1.3v3.5h-1.3v-3.5h-1.3V89.2z"/>
	<linearGradient id="SVGID_4_" gradientUnits="userSpaceOnUse" x1="48.5085" y1="89.2209" x2="48.5085" y2="94.1414">
		<stop  offset="0" style="stop-color:#5A5B5D"/>
		<stop  offset="0.8829" style="stop-color:#2A2627"/>
		<stop  offset="1" style="stop-color:#231F20"/>
	</linearGradient>
	<path class="st5" d="M49.2,93.1h-1.5l-0.2,0.8h-1.3l1.6-4.7h1.4l1.6,4.7h-1.4L49.2,93.1z M49,92.1l-0.5-1.7L48,92.1H49z"/>
	<linearGradient id="SVGID_5_" gradientUnits="userSpaceOnUse" x1="53.1386" y1="89.2209" x2="53.1386" y2="94.1414">
		<stop  offset="0" style="stop-color:#5A5B5D"/>
		<stop  offset="0.8829" style="stop-color:#2A2627"/>
		<stop  offset="1" style="stop-color:#231F20"/>
	</linearGradient>
	<path class="st6" d="M51,89.2h1.5l0.8,1.4l0.7-1.4h1.4L54,91.5l1.5,2.4H54l-0.8-1.5l-0.8,1.5h-1.5l1.5-2.4L51,89.2z"/>
	<linearGradient id="SVGID_6_" gradientUnits="userSpaceOnUse" x1="56.5885" y1="89.2209" x2="56.5885" y2="94.1414">
		<stop  offset="0" style="stop-color:#5A5B5D"/>
		<stop  offset="0.8829" style="stop-color:#2A2627"/>
		<stop  offset="1" style="stop-color:#231F20"/>
	</linearGradient>
	<path class="st7" d="M55.9,89.2h1.3v4.7h-1.3V89.2z"/>
</g>
<path class="st0" d="M30.1,20.4C30.1,20.4,30.1,20.4,30.1,20.4c0-0.1,0-0.2,0-0.2c0,0,0-0.1,0-0.1c0,0,0-0.1,0-0.1c0,0,0,0,0,0
	c0,0,0,0,0,0c0,0,0-0.1,0-0.1c0,0,0-0.1-0.1-0.1c0,0,0,0,0,0c0,0,0,0,0,0c-0.1-0.1-0.1-0.1-0.2-0.1c0,0,0,0,0,0c0,0,0,0,0,0
	c-0.1,0-0.2-0.1-0.3-0.1c-0.5,0-1,0-1.6,0c-1.3-0.1-2.2-0.2-2.9-0.2c0,0-0.1,0-0.1,0c-0.3,0-0.5,0-0.7,0c0,0,0,0,0,0
	c-0.2,0-0.4,0-0.6,0.1c-0.1,0-0.2,0-0.2,0.1c-0.1,0-0.1,0-0.2,0.1c-0.2,0.1-0.4,0.1-0.5,0.2c0,0-0.1,0-0.1,0c0,0-0.1,0-0.1,0.1
	c-0.1,0.1-0.2,0.1-0.3,0.2c-0.1,0.1-0.2,0.2-0.3,0.3c-0.1,0.1-0.1,0.1-0.2,0.2c-0.1,0.1-0.2,0.2-0.2,0.3c-0.1,0.1-0.2,0.2-0.2,0.3
	c0,0.1-0.1,0.1-0.1,0.2c-0.1,0.1-0.1,0.2-0.2,0.3c-0.1,0.2-0.2,0.4-0.3,0.6c0,0,0,0,0,0c-0.1,0.2-0.1,0.3-0.2,0.4c0,0,0,0.1,0,0.1
	c0,0.1-0.1,0.2-0.1,0.3c0,0.1-0.1,0.2-0.1,0.3c0,0,0,0,0,0c0,0,0,0,0,0c0,0,0,0,0,0c0,0,0,0,0,0c0,0.2,0,0.4,0,0.6c0,0,0,0.1,0,0.1
	c0,0.1,0.1,0.3,0.1,0.4c0,0,0,0.1,0.1,0.1c0.1,0.1,0.1,0.2,0.2,0.3c0,0,0.1,0.1,0.1,0.1c0.1,0.1,0.2,0.2,0.3,0.3
	c0.6,0.4,2.4,0.7,3.8,0.4c0,0,0,0,0,0c0,0,0,0,0,0c0.1,0,0.3-0.1,0.4-0.1c0,0,0.1,0,0.1,0c0.1,0,0.2-0.1,0.2-0.1c0,0,0.1,0,0.1-0.1
	c0.1,0,0.1-0.1,0.2-0.1c0,0,0.1,0,0.1-0.1c0.1-0.1,0.2-0.2,0.2-0.3c0.6-0.9-0.4-3,1.5-3.6c1.3-0.4,1.7,0.2,1.7,0.2s0.5,0.1,0.7-0.7
	C30,20.7,30,20.6,30.1,20.4C30.1,20.5,30.1,20.4,30.1,20.4z"/>
<path class="st0" d="M80.2,24.9c0.1-0.1,0.1-0.2,0.2-0.3c0,0,0-0.1,0.1-0.1c0.1-0.1,0.1-0.3,0.1-0.4c0,0,0-0.1,0-0.1
	c0-0.2,0-0.4,0-0.6c0,0,0,0,0,0c0,0,0,0,0,0c0,0,0,0,0,0c0,0,0,0,0,0c0-0.1,0-0.2-0.1-0.3c0-0.1-0.1-0.2-0.1-0.4c0,0,0-0.1,0-0.1
	c0-0.1-0.1-0.3-0.2-0.5c0,0,0,0,0,0c-0.1-0.2-0.2-0.4-0.3-0.6c-0.1-0.1-0.1-0.2-0.2-0.3c0-0.1-0.1-0.1-0.1-0.2
	c-0.1-0.1-0.2-0.2-0.2-0.3c-0.1-0.1-0.1-0.2-0.2-0.3c-0.1-0.1-0.1-0.1-0.2-0.2c-0.1-0.1-0.2-0.2-0.3-0.3c-0.1-0.1-0.2-0.1-0.3-0.2
	c0,0-0.1,0-0.1-0.1c0,0-0.1,0-0.1,0c-0.2-0.1-0.4-0.2-0.5-0.2c-0.1,0-0.1,0-0.2-0.1c-0.1,0-0.2,0-0.2-0.1c-0.2,0-0.4-0.1-0.6-0.1
	c0,0,0,0,0,0c-0.2,0-0.4,0-0.7,0c0,0-0.1,0-0.1,0c-0.7,0-1.6,0.1-2.9,0.2c-0.6,0-1.2,0-1.6,0c-0.1,0-0.2,0-0.3,0.1c0,0,0,0,0,0
	c0,0,0,0,0,0c-0.1,0-0.1,0.1-0.2,0.1c0,0,0,0,0,0c0,0,0,0,0,0c0,0-0.1,0.1-0.1,0.1c0,0,0,0,0,0.1c0,0,0,0,0,0c0,0,0,0,0,0
	c0,0,0,0.1,0,0.1c0,0,0,0.1,0,0.1c0,0,0,0.1,0,0.1c0,0,0,0.1,0,0.1c0,0,0,0.1,0,0.1c0,0.1,0,0.2,0.1,0.3c0.2,0.8,0.7,0.7,0.7,0.7
	s0.4-0.6,1.7-0.2c2,0.6,0.9,2.6,1.5,3.6c0.1,0.1,0.1,0.2,0.2,0.3c0,0,0.1,0,0.1,0.1c0.1,0.1,0.1,0.1,0.2,0.2c0,0,0.1,0,0.1,0.1
	c0.1,0,0.2,0.1,0.3,0.1c0,0,0.1,0,0.1,0c0.1,0,0.3,0.1,0.4,0.1c0,0,0,0,0,0c0,0,0,0,0,0c1.3,0.3,3.1,0,3.8-0.4
	c0.1-0.1,0.2-0.2,0.3-0.3C80.1,24.9,80.1,24.9,80.2,24.9z"/>
</svg>
