<svg fill="#000000" xmlns="http://www.w3.org/2000/svg"  viewBox="0 0 50 50" width="50px" height="50px"><path d="M 3 3 A 1.0001 1.0001 0 0 0 2 4 L 2 8 A 1.0001 1.0001 0 0 0 3 9 L 4 9 L 4 38 A 1.0001 1.0001 0 0 0 5 39 L 24 39 L 24 41.1875 C 22.84267 41.604859 22 42.706841 22 44 C 22 45.64501 23.35499 47 25 47 C 26.64501 47 28 45.64501 28 44 C 28 42.706841 27.15733 41.604859 26 41.1875 L 26 39 L 45 39 A 1.0001 1.0001 0 0 0 46 38 L 46 9 L 47 9 A 1.0001 1.0001 0 0 0 48 8 L 48 4 A 1.0001 1.0001 0 0 0 47 3 L 3 3 z M 4 5 L 46 5 L 46 7 L 45 7 L 5 7 L 4 7 L 4 5 z M 6 9 L 44 9 L 44 37 L 25.154297 37 A 1.0001 1.0001 0 0 0 24.984375 36.986328 A 1.0001 1.0001 0 0 0 24.839844 37 L 6 37 L 6 9 z M 38 14 A 2 2 0 0 0 36 16 A 2 2 0 0 0 36.125 16.6875 L 28.341797 26.029297 L 28.339844 26.029297 A 2 2 0 0 0 28 26 A 2 2 0 0 0 27.597656 26.041016 L 21.896484 19.626953 A 2 2 0 0 0 22 19 A 2 2 0 0 0 20 17 A 2 2 0 0 0 18 19 A 2 2 0 0 0 18.070312 19.515625 L 12.517578 25.068359 A 2 2 0 0 0 12 25 A 2 2 0 0 0 10 27 A 2 2 0 0 0 12 29 A 2 2 0 0 0 14 27 A 2 2 0 0 0 13.929688 26.484375 L 19.482422 20.931641 A 2 2 0 0 0 20 21 A 2 2 0 0 0 20.404297 20.958984 L 26.103516 27.371094 A 2 2 0 0 0 26 28 A 2 2 0 0 0 28 30 A 2 2 0 0 0 30 28 A 2 2 0 0 0 29.875 27.3125 L 37.660156 17.970703 A 2 2 0 0 0 38 18 A 2 2 0 0 0 40 16 A 2 2 0 0 0 38 14 z M 24.943359 43.011719 A 1.0001 1.0001 0 0 0 25.058594 43.011719 C 25.592159 43.042513 26 43.456843 26 44 C 26 44.564129 25.564129 45 25 45 C 24.435871 45 24 44.564129 24 44 C 24 43.45617 24.408812 43.041574 24.943359 43.011719 z"/></svg>