<!-- Generated by IcoMoon.io -->
<svg version="1.1" xmlns="http://www.w3.org/2000/svg" width="1024" height="1024" viewBox="0 0 1024 1024">
<title></title>
<g id="icomoon-ignore">
</g>
<path d="M980.658 1.683l-957.918 313.010c-27.053 8.84-30.965 45.637-6.344 59.952l362.006 210.5c11.421 6.641 25.695 5.84 36.298-2.036l101.762-75.572-75.572 101.762c-7.874 10.605-8.675 24.881-2.036 36.3l210.5 362.006c14.332 24.642 51.121 20.686 59.955-6.344l313.010-957.918c8.396-25.721-16.066-50.031-41.661-41.661zM669.405 910.666l-162.499-279.458 195.946-263.851c9.763-13.151 8.419-31.469-3.163-43.051-11.58-11.582-29.902-12.928-43.051-3.163l-263.851 195.948-279.456-162.501 825.971-269.895zM346.814 723.897l-219.326 219.324c-12.899 12.897-33.814 12.901-46.713 0-12.901-12.899-12.901-33.814 0-46.713l219.326-219.324c12.903-12.897 33.818-12.901 46.713 0 12.901 12.899 12.901 33.814 0 46.713zM57.066 732.196c-12.901-12.901-12.901-33.814 0-46.713l86.543-86.545c12.899-12.901 33.814-12.901 46.713 0 12.901 12.901 12.901 33.814 0 46.713l-86.543 86.545c-12.897 12.897-33.814 12.899-46.713 0zM425.060 833.674c12.901 12.899 12.901 33.814 0 46.713l-86.545 86.543c-6.449 6.451-14.903 9.676-23.355 9.676-29.165 0-44.223-35.523-23.355-56.389l86.545-86.543c12.897-12.901 33.812-12.901 46.711 0z"></path>
</svg>
