<?xml version="1.0" encoding="utf-8"?>
<!-- Svg Vector Icons : http://www.onlinewebfonts.com/icon -->
<!DOCTYPE svg PUBLIC "-//W3C//DTD SVG 1.1//EN" "http://www.w3.org/Graphics/SVG/1.1/DTD/svg11.dtd">
<svg version="1.1" xmlns="http://www.w3.org/2000/svg" xmlns:xlink="http://www.w3.org/1999/xlink" x="0px" y="0px" viewBox="0 0 1000 1000" enable-background="new 0 0 1000 1000" xml:space="preserve">
<metadata> Svg Vector Icons : http://www.onlinewebfonts.com/icon </metadata>
<g><path d="M737.9,700.9h191.3c7.3,0.2,14.6-2.5,20.1-8c10.8-10.8,10.7-28.2,0-38.9c-5.5-5.5-12.7-8.1-19.8-8v-0.1l-258,0c-0.1,0-0.2,0-0.3,0c-0.5,0-1.1,0.1-1.6,0.2c-2.3,0.2-4.4,0.6-6.5,1.3c-0.7,0.2-1.5,0.4-2.2,0.7c-0.9,0.4-1.7,0.9-2.6,1.4c-0.7,0.4-1.4,0.7-2.1,1.1c-1.5,1-2.9,2.1-4.2,3.4c-1.3,1.3-2.4,2.7-3.4,4.2c-0.4,0.7-0.8,1.4-1.1,2.1c-0.5,0.8-1,1.6-1.3,2.5c0,0,0,0.1,0,0.1c-0.3,0.7-0.4,1.4-0.7,2.1c-0.7,2.1-1.1,4.3-1.3,6.5c0,0.5-0.2,1.1-0.2,1.6c0,0.1,0,0.2,0,0.3l0,254.6h0c0,7,2.7,14.1,8.1,19.5c10.8,10.8,28.2,10.8,38.9,0c5.5-5.5,8.1-12.7,8-19.8l0-187.8l242.2,242.2c10.8,10.8,28.2,10.8,38.9,0c10.8-10.8,10.8-28.2,0-38.9L737.9,700.9z"/><path d="M645.8,326.9c0,0.5,0.1,1.1,0.2,1.6c0.2,2.3,0.6,4.4,1.3,6.5c0.2,0.7,0.4,1.5,0.7,2.2c0.4,0.9,0.9,1.7,1.4,2.6c0.4,0.7,0.7,1.4,1.1,2.1c1,1.5,2.1,2.9,3.4,4.2c1.3,1.3,2.7,2.4,4.2,3.4c0.7,0.5,1.4,0.8,2.1,1.1c0.8,0.5,1.6,1,2.5,1.3c0,0,0.1,0,0.1,0c0.7,0.3,1.4,0.4,2.1,0.7c2.1,0.7,4.3,1.1,6.5,1.3c0.5,0,1.1,0.2,1.6,0.2c0.1,0,0.2,0,0.3,0l254.6,0v0c7,0,14.1-2.7,19.5-8.1c10.8-10.8,10.8-28.2,0-38.9c-5.5-5.5-12.7-8.1-19.8-8H739.7L981.9,56.9c10.8-10.8,10.8-28.2,0-38.9c-10.8-10.8-28.2-10.8-38.9,0L700.8,260.1V68.9c0.2-7.3-2.5-14.5-8-20.1c-10.8-10.8-28.2-10.8-38.9,0c-5.5,5.5-8.1,12.7-8,19.8h-0.1l0,258C645.7,326.7,645.8,326.8,645.8,326.9z"/><path d="M357.9,673.1c0-0.5-0.1-1.1-0.2-1.6c-0.2-2.3-0.6-4.4-1.3-6.5c-0.2-0.7-0.4-1.4-0.7-2.1c0,0,0-0.1,0-0.1c-0.4-0.9-0.9-1.7-1.3-2.5c-0.4-0.7-0.7-1.4-1.1-2.1c-1-1.5-2.1-2.9-3.4-4.2c-1.3-1.3-2.7-2.4-4.2-3.4c-0.7-0.5-1.4-0.8-2.1-1.1c-0.9-0.5-1.7-1-2.6-1.4c-0.7-0.3-1.4-0.4-2.2-0.7c-2.1-0.7-4.2-1.1-6.5-1.3c-0.5,0-1.1-0.2-1.6-0.2c-0.1,0-0.2,0-0.3,0h-258v0.1c-7.2-0.1-14.4,2.6-19.8,8c-10.8,10.7-10.8,28.2,0,38.9c5.5,5.5,12.8,8.2,20.1,8l191.3,0L21.8,943.1c-10.8,10.8-10.8,28.2,0,38.9c10.8,10.8,28.2,10.8,38.9,0l242.2-242.2v187.8c-0.1,7.2,2.6,14.4,8,19.8c10.8,10.8,28.2,10.8,38.9,0c5.4-5.4,8.1-12.4,8.1-19.5h0l0-254.6C358,673.3,357.9,673.2,357.9,673.1z"/><path d="M260.3,300.9H72.5c-7.2-0.1-14.4,2.6-19.8,8c-10.8,10.8-10.8,28.2,0,38.9c5.4,5.4,12.4,8.1,19.5,8.1v0l254.6,0c0.1,0,0.2,0,0.3,0c0.5,0,1.1-0.1,1.6-0.2c2.3-0.2,4.5-0.6,6.5-1.3c0.7-0.2,1.4-0.4,2.1-0.7c0,0,0.1,0,0.1,0c0.9-0.4,1.7-0.9,2.5-1.3c0.7-0.4,1.4-0.7,2.1-1.1c1.5-1,2.9-2.1,4.2-3.4c1.3-1.3,2.4-2.7,3.4-4.2c0.5-0.7,0.8-1.4,1.1-2.1c0.5-0.9,1-1.7,1.4-2.6c0.3-0.7,0.4-1.4,0.7-2.2c0.7-2.1,1.1-4.2,1.3-6.5c0-0.5,0.2-1.1,0.2-1.6c0-0.1,0-0.2,0-0.3l0-258l-0.1,0c0.1-7.2-2.6-14.4-8-19.8c-10.8-10.8-28.2-10.8-38.9,0c-5.5,5.5-8.2,12.8-8,20.1l0,191.3L57,19.8C46.2,9,28.8,9,18.1,19.8C7.3,30.5,7.3,48,18.1,58.7L260.3,300.9z"/></g>
</svg>