<svg xmlns="http://www.w3.org/2000/svg"  viewBox="0 0 48 48" width="48px" height="48px"><path fill="#fff" d="M29,28.17V41H19V28.2c1.67,0.6,3.33,1.2,5,1.8C25.67,29.39,27.34,28.79,29,28.17z"/><path fill="#1a237e" d="M29,29c0,0,11.187,2.594,11,13H8C7.991,31.344,19,29,19,29l5,12L29,29L29,29"/><path fill="#1a237e" d="M36.866,11.199C36.109,13.141,34,15,34,15s-2.373-2.492-9.999-2.492C16.373,12.508,14,15,14,15	s-2.108-1.859-2.864-3.801c-0.13-0.332-0.394-0.928,0.554-1.094C18.077,8.981,21.631,4,24.001,4c3.554,0,5.923,4.981,12.31,6.106	C37.259,10.271,36.995,10.867,36.866,11.199z"/><polygon fill="#3f51b5" points="23,33 22,32 24,30 26,32 25,33 25.616,37.122 24,41 22.384,37.122"/><polygon fill="#3f51b5" points="39,33 30,29.25 30,33.25 39,37"/><polygon fill="#3f51b5" points="9,37 18,33.25 18,29.25 9,33"/><path fill="#3f51b5" d="M14,15v2h20v-2c0,0-2.373-2.492-9.999-2.492C16.373,12.508,14,15,14,15z"/><path fill="#263238" d="M34,16.998c0,0-1.76,3.002-9.999,3.002C15.761,20,14,16.998,14,16.998S16.849,15,24.001,15	C31.152,15,34,16.998,34,16.998z"/><circle cx="37" cy="34" r="1" fill="#ffeb3b"/><circle cx="11" cy="34" r="1" fill="#ffeb3b"/><path fill="#ffeb3b" d="M26,7.961C26,7.961,25.105,7,24,7c-1.104,0-2,0.961-2,0.961C22,9.066,22.897,11,24,11	C25.105,11,26,9.066,26,7.961z"/><path fill="#e0e0e0" d="M19,28.2c1.67,0.6,3.33,1.2,5,1.8c-1.08,1.08-2.16,2.16-3.24,3.24c-0.59-1.33-1.17-2.66-1.76-3.99	c-0.18-0.42-0.37-0.83-0.55-1.25C18.63,28.07,18.82,28.13,19,28.2z"/><path fill="#e0e0e0" d="M29.45,28.01c-0.15,0.35-0.3,0.71-0.45,1.06c-0.59,1.39-1.18,2.77-1.76,4.17	C26.16,32.16,25.08,31.08,24,30c1.67-0.61,3.34-1.21,5-1.83C29.15,28.12,29.3,28.07,29.45,28.01z"/></svg>