<?xml version="1.0"?><svg fill="#000000" xmlns="http://www.w3.org/2000/svg"  viewBox="0 0 50 50" width="50px" height="50px">    <path d="M 5 9 C 4.447 9 4 9.448 4 10 L 4 40 C 4 40.552 4.447 41 5 41 L 45 41 C 45.553 41 46 40.552 46 40 L 46 10 C 46 9.448 45.553 9 45 9 L 5 9 z M 6 11 L 44 11 L 44 39 L 6 39 L 6 11 z M 28.876953 18.404297 L 26.078125 31.59375 L 32.275391 31.59375 C 36.342391 31.59375 39.185547 28.258922 39.185547 23.669922 C 39.185547 20.360922 37.156109 18.404297 33.912109 18.404297 L 28.876953 18.404297 z M 13.507812 18.40625 L 10.699219 31.59375 L 13.863281 31.59375 L 15.015625 26.210938 L 20.480469 26.210938 L 19.328125 31.59375 L 22.509766 31.59375 L 25.314453 18.40625 L 22.144531 18.40625 L 21.027344 23.634766 L 15.5625 23.634766 L 16.677734 18.40625 L 13.507812 18.40625 z M 31.525391 20.974609 L 33.115234 20.974609 C 34.887234 20.974609 35.929688 22.161156 35.929688 24.035156 C 35.929688 27.060156 34.247203 29.025391 31.908203 29.025391 L 29.816406 29.025391 L 31.525391 20.974609 z"/></svg>