<svg xmlns="http://www.w3.org/2000/svg"  viewBox="0 0 50 50" width="50px" height="50px"><path d="M 36.185547 3.0019531 C 35.878804 3.001831 35.569892 3.0516358 35.265625 3.1484375 C 34.657092 3.3420409 34.070612 3.7208184 33.572266 4.25 L 33.623047 4.1992188 L 20.787109 16 L 14 16 C 12.354545 16 11 17.354545 11 19 L 11 31 C 11 32.645455 12.354545 34 14 34 L 20.832031 34 L 33.492188 45.722656 C 33.493988 45.724456 33.496147 45.724762 33.498047 45.726562 C 34.627114 46.851895 36.063494 47.31285 37.240234 46.755859 C 38.418838 46.197979 39 44.85959 39 43.316406 L 39 6.3359375 C 39 4.8446493 38.261763 3.5825187 37.089844 3.1582031 C 36.796864 3.0521243 36.49229 3.0020752 36.185547 3.0019531 z M 36.162109 4.9980469 C 36.25765 4.9982508 36.340636 5.0138914 36.410156 5.0390625 C 36.688237 5.139747 37 5.4282257 37 6.3359375 L 37 43.316406 C 37 44.372223 36.631125 44.832609 36.384766 44.949219 C 36.138407 45.065829 35.676354 45.078292 34.90625 44.308594 A 1.0001 1.0001 0 0 0 34.878906 44.28125 L 21.306641 31.712891 C 21.318904 31.724184 21 31.136198 21 30.722656 L 21 19.228516 C 21 19.095182 21.04908 18.827028 21.128906 18.605469 C 21.207876 18.386271 21.346222 18.199723 21.304688 18.240234 L 34.976562 5.671875 A 1.0001 1.0001 0 0 0 35.027344 5.6210938 C 35.479825 5.140616 35.875488 4.9974352 36.162109 4.9980469 z M 14 18 L 19.226562 18 C 19.094694 18.382876 19 18.78865 19 19.228516 L 19 30.722656 C 19 31.190478 19.067578 31.614258 19.199219 32 L 14 32 C 13.445455 32 13 31.554545 13 31 L 13 19 C 13 18.445455 13.445455 18 14 18 z"/></svg>