<svg xmlns="http://www.w3.org/2000/svg"  viewBox="0 0 48 48" width="50px" height="50px"><path d="M 16.970703 5.9726562 A 2.0002 2.0002 0 0 0 15 8 L 14.998047 13.5 C 14.998047 14.345371 14.343418 15 13.498047 15 L 7.9980469 15 A 2.0002 2.0002 0 1 0 7.9980469 19 L 13.498047 19 C 16.512676 19 18.998047 16.514629 18.998047 13.5 L 19 8 A 2.0002 2.0002 0 0 0 16.970703 5.9726562 z M 30.970703 5.9726562 A 2.0002 2.0002 0 0 0 29.001953 8 L 29 13.5 C 29 16.514629 31.485371 19 34.5 19 L 40 19 A 2.0002 2.0002 0 1 0 40 15 L 34.5 15 C 33.654629 15 33 14.345371 33 13.5 L 33.001953 8 A 2.0002 2.0002 0 0 0 30.970703 5.9726562 z M 8 29 A 2.0002 2.0002 0 1 0 8 33 L 13.5 33 C 14.345371 33 15 33.654629 15 34.5 L 15 40 A 2.0002 2.0002 0 1 0 19 40 L 19 34.5 C 19 31.485371 16.514629 29 13.5 29 L 8 29 z M 34.5 29 C 31.485371 29 29 31.485371 29 34.5 L 29 40 A 2.0002 2.0002 0 1 0 33 40 L 33 34.5 C 33 33.654629 33.654629 33 34.5 33 L 40 33 A 2.0002 2.0002 0 1 0 40 29 L 34.5 29 z"/></svg>