<svg xmlns="http://www.w3.org/2000/svg"  viewBox="0 0 48 48" width="50px" height="50px"><path d="M 11.5 6 C 8.4853713 6 6 8.4853713 6 11.5 L 5.9980469 17 A 2.0002 2.0002 0 1 0 9.9980469 17 L 10 11.5 C 10 10.654629 10.654629 10 11.5 10 L 17 10 A 2.0002 2.0002 0 1 0 17 6 L 11.5 6 z M 31 6 A 2.0002 2.0002 0 1 0 31 10 L 36.5 10 C 37.345371 10 38 10.654629 38 11.5 L 37.998047 17 A 2.0002 2.0002 0 1 0 41.998047 17 L 42 11.5 C 42 8.4853713 39.514629 6 36.5 6 L 31 6 z M 7.9707031 28.972656 A 2.0002 2.0002 0 0 0 6 31 L 6 36.5 C 6 39.514629 8.4853713 42 11.5 42 L 17 42 A 2.0002 2.0002 0 1 0 17 38 L 11.5 38 C 10.654629 38 10 37.345371 10 36.5 L 10 31 A 2.0002 2.0002 0 0 0 7.9707031 28.972656 z M 39.970703 28.972656 A 2.0002 2.0002 0 0 0 38 31 L 38 36.5 C 38 37.345371 37.345371 38 36.5 38 L 31 38 A 2.0002 2.0002 0 1 0 31 42 L 36.5 42 C 39.514629 42 42 39.514629 42 36.5 L 42 31 A 2.0002 2.0002 0 0 0 39.970703 28.972656 z"/></svg>