<svg fill="#000000" xmlns="http://www.w3.org/2000/svg"  viewBox="0 0 100 100" width="200px" height="200px"><path d="M 17 24 C 12.041484 24 8 28.041484 8 33 L 8 67 C 8 71.958516 12.041484 76 17 76 L 62 76 C 66.958516 76 71 71.958516 71 67 L 71 63.082031 L 83.279297 72.904297 C 84.16601 73.614668 85.267472 74 86.402344 74 L 91 74 A 1.0001 1.0001 0 0 0 92 73 L 92 27 A 1.0001 1.0001 0 0 0 91 26 L 86.402344 26 C 85.267472 26 84.166251 26.38614 83.279297 27.095703 L 71 36.917969 L 71 33 C 71 28.041484 66.958516 24 62 24 L 17 24 z M 17 26 L 62 26 C 65.877484 26 69 29.122516 69 33 L 69 67 C 69 70.877484 65.877484 74 62 74 L 17 74 C 13.122516 74 10 70.877484 10 67 L 10 33 C 10 29.122516 13.122516 26 17 26 z M 86.402344 28 L 90 28 L 90 72 L 86.402344 72 C 86.266935 72 86.132934 71.98487 86 71.966797 L 86 40.5 A 0.50005 0.50005 0 0 0 85.492188 39.992188 A 0.50005 0.50005 0 0 0 85 40.5 L 85 71.646484 C 84.835604 71.559147 84.676212 71.459495 84.529297 71.341797 L 71 60.519531 L 71 39.480469 L 84.529297 28.658203 C 84.676699 28.540281 84.835544 28.440881 85 28.353516 L 85 32.5 A 0.50005 0.50005 0 1 0 86 32.5 L 86 28.033203 C 86.132836 28.015175 86.266935 28 86.402344 28 z M 14.492188 33.992188 A 0.50005 0.50005 0 0 0 14 34.5 L 14 35.5 A 0.50005 0.50005 0 1 0 15 35.5 L 15 34.5 A 0.50005 0.50005 0 0 0 14.492188 33.992188 z M 85.492188 34.992188 A 0.50005 0.50005 0 0 0 85 35.5 L 85 37.5 A 0.50005 0.50005 0 1 0 86 37.5 L 86 35.5 A 0.50005 0.50005 0 0 0 85.492188 34.992188 z M 14.492188 38.992188 A 0.50005 0.50005 0 0 0 14 39.5 L 14 43.5 A 0.50005 0.50005 0 1 0 15 43.5 L 15 39.5 A 0.50005 0.50005 0 0 0 14.492188 38.992188 z M 14.492188 45.992188 A 0.50005 0.50005 0 0 0 14 46.5 L 14 65.5 A 0.50005 0.50005 0 1 0 15 65.5 L 15 46.5 A 0.50005 0.50005 0 0 0 14.492188 45.992188 z"/></svg>