<svg xmlns="http://www.w3.org/2000/svg"  viewBox="0 0 48 48" width="48px" height="48px"><linearGradient id="8MS7JkCvSWzEzTA9VBz6Ja" x1="15.435" x2="23.453" y1="3.659" y2="22.7" gradientUnits="userSpaceOnUse"><stop offset="0" stop-color="#999"/><stop offset=".403" stop-color="#eee"/><stop offset="1" stop-color="#9b9b9b"/></linearGradient><path fill="url(#8MS7JkCvSWzEzTA9VBz6Ja)" d="M45.562,35H2.437C1.091,35,0,33.909,0,32.563V15.438C0,14.091,1.091,13,2.437,13h43.125	C46.909,13,48,14.091,48,15.438v17.125C48,33.909,46.909,35,45.562,35z"/><linearGradient id="8MS7JkCvSWzEzTA9VBz6Jb" x1="15.842" x2="23.479" y1="4.626" y2="22.762" gradientUnits="userSpaceOnUse"><stop offset="0" stop-color="#666"/><stop offset=".999" stop-color="#171714"/></linearGradient><path fill="url(#8MS7JkCvSWzEzTA9VBz6Jb)" d="M45.922,34H2.078C1.483,34,1,33.517,1,32.922V15.078C1,14.483,1.483,14,2.078,14h43.844	C46.517,14,47,14.483,47,15.078v17.844C47,33.517,46.517,34,45.922,34z"/><linearGradient id="8MS7JkCvSWzEzTA9VBz6Jc" x1="9" x2="9" y1="17.874" y2="29.844" gradientUnits="userSpaceOnUse"><stop offset="0" stop-color="#484847"/><stop offset=".403" stop-color="#20201e"/><stop offset="1" stop-color="#454545"/></linearGradient><circle cx="9" cy="24" r="6" fill="url(#8MS7JkCvSWzEzTA9VBz6Jc)"/><linearGradient id="8MS7JkCvSWzEzTA9VBz6Jd" x1="24" x2="24" y1="17.874" y2="29.844" gradientUnits="userSpaceOnUse"><stop offset="0" stop-color="#484847"/><stop offset=".403" stop-color="#20201e"/><stop offset="1" stop-color="#454545"/></linearGradient><circle cx="24" cy="24" r="6" fill="url(#8MS7JkCvSWzEzTA9VBz6Jd)"/><linearGradient id="8MS7JkCvSWzEzTA9VBz6Je" x1="39" x2="39" y1="17.874" y2="29.844" gradientUnits="userSpaceOnUse"><stop offset="0" stop-color="#484847"/><stop offset=".403" stop-color="#20201e"/><stop offset="1" stop-color="#454545"/></linearGradient><circle cx="39" cy="24" r="6" fill="url(#8MS7JkCvSWzEzTA9VBz6Je)"/><linearGradient id="8MS7JkCvSWzEzTA9VBz6Jf" x1="20.781" x2="24.47" y1="20.137" y2="24.564" gradientUnits="userSpaceOnUse"><stop offset="0" stop-color="#fdd835"/><stop offset="1" stop-color="#f9a825"/></linearGradient><circle cx="24" cy="24" r="5" fill="url(#8MS7JkCvSWzEzTA9VBz6Jf)"/><linearGradient id="8MS7JkCvSWzEzTA9VBz6Jg" x1="35.781" x2="39.47" y1="20.137" y2="24.564" gradientUnits="userSpaceOnUse"><stop offset="0" stop-color="#89c535"/><stop offset="1" stop-color="#328748"/></linearGradient><circle cx="39" cy="24" r="5" fill="url(#8MS7JkCvSWzEzTA9VBz6Jg)"/><linearGradient id="8MS7JkCvSWzEzTA9VBz6Jh" x1="5.781" x2="9.47" y1="20.137" y2="24.564" gradientUnits="userSpaceOnUse"><stop offset="0" stop-color="#f68381"/><stop offset="1" stop-color="#e51e25"/></linearGradient><circle cx="9" cy="24" r="5" fill="url(#8MS7JkCvSWzEzTA9VBz6Jh)"/><radialGradient id="8MS7JkCvSWzEzTA9VBz6Ji" cx="8.844" cy="24.833" r="10.677" gradientTransform="matrix(1 0 0 .8195 0 4.482)" gradientUnits="userSpaceOnUse"><stop offset=".346" stop-color="#a6251f" stop-opacity="0"/><stop offset=".492" stop-color="#770c1f" stop-opacity=".513"/><stop offset=".574" stop-color="#61001f" stop-opacity=".8"/></radialGradient><circle cx="9" cy="24" r="5" fill="url(#8MS7JkCvSWzEzTA9VBz6Ji)"/><radialGradient id="8MS7JkCvSWzEzTA9VBz6Jj" cx="38.844" cy="24.833" r="10.677" gradientTransform="matrix(1 0 0 .8195 0 4.482)" gradientUnits="userSpaceOnUse"><stop offset=".346" stop-color="#04562d" stop-opacity="0"/><stop offset=".574" stop-color="#04562d" stop-opacity=".8"/></radialGradient><circle cx="39" cy="24" r="5" fill="url(#8MS7JkCvSWzEzTA9VBz6Jj)"/><radialGradient id="8MS7JkCvSWzEzTA9VBz6Jk" cx="23.844" cy="24.833" r="10.677" gradientTransform="matrix(1 0 0 .8195 0 4.482)" gradientUnits="userSpaceOnUse"><stop offset=".288" stop-color="#c9640c" stop-opacity="0"/><stop offset=".574" stop-color="#c9640c" stop-opacity=".8"/></radialGradient><circle cx="24" cy="24" r="5" fill="url(#8MS7JkCvSWzEzTA9VBz6Jk)"/><linearGradient id="8MS7JkCvSWzEzTA9VBz6Jl" x1="9" x2="9" y1="16.749" y2="21.475" gradientUnits="userSpaceOnUse"><stop offset="0" stop-color="#666"/><stop offset=".999" stop-color="#171714"/></linearGradient><path fill="url(#8MS7JkCvSWzEzTA9VBz6Jl)" d="M9,19c3.089,0,5.592,1.686,5.592,5H15c0-3.866-2.686-7-6-7s-6,3.134-6,7h0.408	C3.408,20.686,5.911,19,9,19z"/><linearGradient id="8MS7JkCvSWzEzTA9VBz6Jm" x1="9" x2="9" y1="16.125" y2="20.175" gradientUnits="userSpaceOnUse"><stop offset="0" stop-color="#666"/><stop offset=".999" stop-color="#171714"/></linearGradient><path fill="url(#8MS7JkCvSWzEzTA9VBz6Jm)" d="M9,19c2.761,0,5,2.239,5,5h1c0-3.314-2.686-6-6-6s-6,2.686-6,6h1C4,21.239,6.239,19,9,19z"/><linearGradient id="8MS7JkCvSWzEzTA9VBz6Jn" x1="24" x2="24" y1="16.749" y2="21.475" gradientUnits="userSpaceOnUse"><stop offset="0" stop-color="#666"/><stop offset=".999" stop-color="#171714"/></linearGradient><path fill="url(#8MS7JkCvSWzEzTA9VBz6Jn)" d="M24,19c3.089,0,5.592,1.686,5.592,5H30c0-3.866-2.686-7-6-7s-6,3.134-6,7h0.408	C18.408,20.686,20.911,19,24,19z"/><linearGradient id="8MS7JkCvSWzEzTA9VBz6Jo" x1="24" x2="24" y1="16.125" y2="20.175" gradientUnits="userSpaceOnUse"><stop offset="0" stop-color="#666"/><stop offset=".999" stop-color="#171714"/></linearGradient><path fill="url(#8MS7JkCvSWzEzTA9VBz6Jo)" d="M24,19c2.761,0,5,2.239,5,5h1c0-3.314-2.686-6-6-6s-6,2.686-6,6h1C19,21.239,21.239,19,24,19	z"/><linearGradient id="8MS7JkCvSWzEzTA9VBz6Jp" x1="39" x2="39" y1="16.749" y2="21.475" gradientUnits="userSpaceOnUse"><stop offset="0" stop-color="#666"/><stop offset=".999" stop-color="#171714"/></linearGradient><path fill="url(#8MS7JkCvSWzEzTA9VBz6Jp)" d="M39,19c3.089,0,5.592,1.686,5.592,5H45c0-3.866-2.686-7-6-7s-6,3.134-6,7h0.408	C33.408,20.686,35.911,19,39,19z"/><linearGradient id="8MS7JkCvSWzEzTA9VBz6Jq" x1="39" x2="39" y1="16.125" y2="20.175" gradientUnits="userSpaceOnUse"><stop offset="0" stop-color="#666"/><stop offset=".999" stop-color="#171714"/></linearGradient><path fill="url(#8MS7JkCvSWzEzTA9VBz6Jq)" d="M39,19c2.761,0,5,2.239,5,5h1c0-3.314-2.686-6-6-6s-6,2.686-6,6h1C34,21.239,36.239,19,39,19	z"/></svg>